G75*
G70*
%OFA0B0*%
%FSLAX24Y24*%
%IPPOS*%
%LPD*%
%AMOC8*
5,1,8,0,0,1.08239X$1,22.5*
%
%ADD10C,0.0000*%
%ADD11C,0.0640*%
%ADD12R,0.0500X0.0220*%
%ADD13R,0.0220X0.0500*%
%ADD14R,0.0800X0.0260*%
%ADD15R,0.0740X0.0740*%
%ADD16C,0.0740*%
%ADD17R,0.0630X0.0512*%
%ADD18R,0.1100X0.0900*%
%ADD19R,0.0394X0.1614*%
%ADD20R,0.0315X0.0098*%
%ADD21R,0.1260X0.2598*%
%ADD22R,0.0315X0.0472*%
%ADD23R,0.0472X0.0315*%
%ADD24R,0.0394X0.0433*%
%ADD25R,0.2126X0.2441*%
%ADD26R,0.0394X0.0630*%
%ADD27C,0.0886*%
%ADD28R,0.0945X0.1024*%
%ADD29R,0.0866X0.1024*%
%ADD30C,0.0600*%
%ADD31R,0.0472X0.0472*%
%ADD32R,0.0512X0.0630*%
%ADD33C,0.0160*%
%ADD34C,0.0396*%
%ADD35C,0.0120*%
%ADD36C,0.0500*%
%ADD37C,0.0100*%
D10*
X000180Y000230D02*
X000180Y009230D01*
X040080Y009230D01*
X040080Y000230D01*
X000180Y000230D01*
X000780Y001480D02*
X000782Y001530D01*
X000788Y001580D01*
X000798Y001630D01*
X000811Y001678D01*
X000828Y001726D01*
X000849Y001772D01*
X000873Y001816D01*
X000901Y001858D01*
X000932Y001898D01*
X000966Y001935D01*
X001003Y001970D01*
X001042Y002001D01*
X001083Y002030D01*
X001127Y002055D01*
X001173Y002077D01*
X001220Y002095D01*
X001268Y002109D01*
X001317Y002120D01*
X001367Y002127D01*
X001417Y002130D01*
X001468Y002129D01*
X001518Y002124D01*
X001568Y002115D01*
X001616Y002103D01*
X001664Y002086D01*
X001710Y002066D01*
X001755Y002043D01*
X001798Y002016D01*
X001838Y001986D01*
X001876Y001953D01*
X001911Y001917D01*
X001944Y001878D01*
X001973Y001837D01*
X001999Y001794D01*
X002022Y001749D01*
X002041Y001702D01*
X002056Y001654D01*
X002068Y001605D01*
X002076Y001555D01*
X002080Y001505D01*
X002080Y001455D01*
X002076Y001405D01*
X002068Y001355D01*
X002056Y001306D01*
X002041Y001258D01*
X002022Y001211D01*
X001999Y001166D01*
X001973Y001123D01*
X001944Y001082D01*
X001911Y001043D01*
X001876Y001007D01*
X001838Y000974D01*
X001798Y000944D01*
X001755Y000917D01*
X001710Y000894D01*
X001664Y000874D01*
X001616Y000857D01*
X001568Y000845D01*
X001518Y000836D01*
X001468Y000831D01*
X001417Y000830D01*
X001367Y000833D01*
X001317Y000840D01*
X001268Y000851D01*
X001220Y000865D01*
X001173Y000883D01*
X001127Y000905D01*
X001083Y000930D01*
X001042Y000959D01*
X001003Y000990D01*
X000966Y001025D01*
X000932Y001062D01*
X000901Y001102D01*
X000873Y001144D01*
X000849Y001188D01*
X000828Y001234D01*
X000811Y001282D01*
X000798Y001330D01*
X000788Y001380D01*
X000782Y001430D01*
X000780Y001480D01*
X019340Y005720D02*
X019342Y005770D01*
X019348Y005820D01*
X019358Y005870D01*
X019371Y005918D01*
X019388Y005966D01*
X019409Y006012D01*
X019433Y006056D01*
X019461Y006098D01*
X019492Y006138D01*
X019526Y006175D01*
X019563Y006210D01*
X019602Y006241D01*
X019643Y006270D01*
X019687Y006295D01*
X019733Y006317D01*
X019780Y006335D01*
X019828Y006349D01*
X019877Y006360D01*
X019927Y006367D01*
X019977Y006370D01*
X020028Y006369D01*
X020078Y006364D01*
X020128Y006355D01*
X020176Y006343D01*
X020224Y006326D01*
X020270Y006306D01*
X020315Y006283D01*
X020358Y006256D01*
X020398Y006226D01*
X020436Y006193D01*
X020471Y006157D01*
X020504Y006118D01*
X020533Y006077D01*
X020559Y006034D01*
X020582Y005989D01*
X020601Y005942D01*
X020616Y005894D01*
X020628Y005845D01*
X020636Y005795D01*
X020640Y005745D01*
X020640Y005695D01*
X020636Y005645D01*
X020628Y005595D01*
X020616Y005546D01*
X020601Y005498D01*
X020582Y005451D01*
X020559Y005406D01*
X020533Y005363D01*
X020504Y005322D01*
X020471Y005283D01*
X020436Y005247D01*
X020398Y005214D01*
X020358Y005184D01*
X020315Y005157D01*
X020270Y005134D01*
X020224Y005114D01*
X020176Y005097D01*
X020128Y005085D01*
X020078Y005076D01*
X020028Y005071D01*
X019977Y005070D01*
X019927Y005073D01*
X019877Y005080D01*
X019828Y005091D01*
X019780Y005105D01*
X019733Y005123D01*
X019687Y005145D01*
X019643Y005170D01*
X019602Y005199D01*
X019563Y005230D01*
X019526Y005265D01*
X019492Y005302D01*
X019461Y005342D01*
X019433Y005384D01*
X019409Y005428D01*
X019388Y005474D01*
X019371Y005522D01*
X019358Y005570D01*
X019348Y005620D01*
X019342Y005670D01*
X019340Y005720D01*
X000880Y007880D02*
X000882Y007930D01*
X000888Y007980D01*
X000898Y008030D01*
X000911Y008078D01*
X000928Y008126D01*
X000949Y008172D01*
X000973Y008216D01*
X001001Y008258D01*
X001032Y008298D01*
X001066Y008335D01*
X001103Y008370D01*
X001142Y008401D01*
X001183Y008430D01*
X001227Y008455D01*
X001273Y008477D01*
X001320Y008495D01*
X001368Y008509D01*
X001417Y008520D01*
X001467Y008527D01*
X001517Y008530D01*
X001568Y008529D01*
X001618Y008524D01*
X001668Y008515D01*
X001716Y008503D01*
X001764Y008486D01*
X001810Y008466D01*
X001855Y008443D01*
X001898Y008416D01*
X001938Y008386D01*
X001976Y008353D01*
X002011Y008317D01*
X002044Y008278D01*
X002073Y008237D01*
X002099Y008194D01*
X002122Y008149D01*
X002141Y008102D01*
X002156Y008054D01*
X002168Y008005D01*
X002176Y007955D01*
X002180Y007905D01*
X002180Y007855D01*
X002176Y007805D01*
X002168Y007755D01*
X002156Y007706D01*
X002141Y007658D01*
X002122Y007611D01*
X002099Y007566D01*
X002073Y007523D01*
X002044Y007482D01*
X002011Y007443D01*
X001976Y007407D01*
X001938Y007374D01*
X001898Y007344D01*
X001855Y007317D01*
X001810Y007294D01*
X001764Y007274D01*
X001716Y007257D01*
X001668Y007245D01*
X001618Y007236D01*
X001568Y007231D01*
X001517Y007230D01*
X001467Y007233D01*
X001417Y007240D01*
X001368Y007251D01*
X001320Y007265D01*
X001273Y007283D01*
X001227Y007305D01*
X001183Y007330D01*
X001142Y007359D01*
X001103Y007390D01*
X001066Y007425D01*
X001032Y007462D01*
X001001Y007502D01*
X000973Y007544D01*
X000949Y007588D01*
X000928Y007634D01*
X000911Y007682D01*
X000898Y007730D01*
X000888Y007780D01*
X000882Y007830D01*
X000880Y007880D01*
D11*
X013638Y008159D03*
X014638Y008159D03*
X015638Y008159D03*
X015638Y007159D03*
X014638Y007159D03*
X013638Y007159D03*
D12*
X013688Y004040D03*
X013688Y003725D03*
X013688Y003410D03*
X013688Y003095D03*
X013688Y002781D03*
X013688Y002466D03*
X013688Y002151D03*
X013688Y001836D03*
X017068Y001836D03*
X017068Y002151D03*
X017068Y002466D03*
X017068Y002781D03*
X017068Y003095D03*
X017068Y003410D03*
X017068Y003725D03*
X017068Y004040D03*
D13*
X016480Y004628D03*
X016165Y004628D03*
X015850Y004628D03*
X015535Y004628D03*
X015221Y004628D03*
X014906Y004628D03*
X014591Y004628D03*
X014276Y004628D03*
X014276Y001248D03*
X014591Y001248D03*
X014906Y001248D03*
X015221Y001248D03*
X015535Y001248D03*
X015850Y001248D03*
X016165Y001248D03*
X016480Y001248D03*
D14*
X019215Y002557D03*
X019215Y003057D03*
X019215Y003557D03*
X019215Y004057D03*
X021635Y004057D03*
X021635Y003557D03*
X021635Y003057D03*
X021635Y002557D03*
X035970Y006380D03*
X035970Y006880D03*
X035970Y007380D03*
X035970Y007880D03*
X038390Y007880D03*
X038390Y007380D03*
X038390Y006880D03*
X038390Y006380D03*
D15*
X037230Y001680D03*
X021122Y001622D03*
D16*
X020122Y001622D03*
X019122Y001622D03*
X018122Y001622D03*
X005880Y001230D03*
X004880Y001230D03*
X003880Y001230D03*
X003880Y002230D03*
X004880Y002230D03*
X005880Y002230D03*
X005880Y003230D03*
X004880Y003230D03*
X003880Y003230D03*
X003880Y004230D03*
X004880Y004230D03*
X005880Y004230D03*
X005880Y005230D03*
X004880Y005230D03*
X003880Y005230D03*
X003880Y006230D03*
X004880Y006230D03*
X005880Y006230D03*
X005880Y007230D03*
X004880Y007230D03*
X003880Y007230D03*
X003880Y008230D03*
X004880Y008230D03*
X005880Y008230D03*
X037230Y004680D03*
X037230Y003680D03*
X037230Y002680D03*
D17*
X016770Y007525D03*
X016770Y008273D03*
D18*
X025764Y008051D03*
X025764Y006439D03*
D19*
X017980Y005924D03*
X017389Y005924D03*
X016798Y005924D03*
D20*
X012222Y006047D03*
X012222Y005787D03*
X012222Y005527D03*
X012222Y005267D03*
X012222Y005007D03*
X012222Y004747D03*
X012224Y004487D03*
X012222Y004227D03*
X012222Y003967D03*
X012222Y003707D03*
X012222Y003447D03*
X012222Y003187D03*
X012222Y002927D03*
X009922Y002927D03*
X009922Y003187D03*
X009922Y003447D03*
X009922Y003707D03*
X009922Y003967D03*
X009922Y004227D03*
X009920Y004487D03*
X009922Y004747D03*
X009922Y005007D03*
X009922Y005267D03*
X009922Y005527D03*
X009922Y005787D03*
X009922Y006047D03*
X009922Y006307D03*
X012222Y006307D03*
D21*
X011072Y004617D03*
D22*
X007484Y004230D03*
X006776Y004230D03*
X006776Y003230D03*
X007484Y003230D03*
X007484Y002230D03*
X006776Y002230D03*
X006776Y001230D03*
X007484Y001230D03*
X007484Y005230D03*
X006776Y005230D03*
X006776Y006230D03*
X007484Y006230D03*
X009276Y007030D03*
X009984Y007030D03*
X007484Y007230D03*
X006776Y007230D03*
X006776Y008230D03*
X007484Y008230D03*
D23*
X011680Y008334D03*
X011680Y007626D03*
D24*
X010930Y007695D03*
X010930Y008365D03*
D25*
X025522Y001935D03*
D26*
X026420Y004809D03*
X024624Y004809D03*
D27*
X028705Y005830D02*
X029591Y005830D01*
X032837Y005830D02*
X033723Y005830D01*
X033723Y003830D02*
X032837Y003830D01*
X029591Y003830D02*
X028705Y003830D01*
X028705Y001830D02*
X029591Y001830D01*
X032837Y001830D02*
X033723Y001830D01*
X033723Y007830D02*
X032837Y007830D01*
X029591Y007830D02*
X028705Y007830D01*
D28*
X023006Y007744D03*
X023006Y005224D03*
D29*
X023129Y003475D03*
X023129Y001507D03*
D30*
X020530Y007530D02*
X020530Y008130D01*
X019430Y008130D02*
X019430Y007530D01*
D31*
X010853Y002150D03*
X010027Y002150D03*
D32*
X010036Y001420D03*
X010784Y001420D03*
D33*
X011900Y001420D01*
X011980Y001500D01*
X012338Y001498D02*
X012370Y001498D01*
X012370Y001493D02*
X012520Y001343D01*
X012643Y001220D01*
X013967Y001220D01*
X014006Y001259D01*
X014006Y001020D01*
X011181Y001020D01*
X011200Y001039D01*
X011200Y001180D01*
X011817Y001180D01*
X011909Y001142D01*
X012051Y001142D01*
X012183Y001196D01*
X012284Y001297D01*
X012338Y001429D01*
X012338Y001571D01*
X012284Y001703D01*
X012183Y001804D01*
X012051Y001858D01*
X011909Y001858D01*
X011777Y001804D01*
X011676Y001703D01*
X011659Y001660D01*
X011200Y001660D01*
X011200Y001770D01*
X011234Y001803D01*
X011257Y001844D01*
X011270Y001890D01*
X011270Y002112D01*
X010892Y002112D01*
X010892Y002188D01*
X011270Y002188D01*
X011270Y002410D01*
X011257Y002456D01*
X011234Y002497D01*
X011200Y002530D01*
X011159Y002554D01*
X011113Y002566D01*
X010891Y002566D01*
X010891Y002188D01*
X010815Y002188D01*
X010815Y002112D01*
X010437Y002112D01*
X010437Y001890D01*
X010441Y001874D01*
X010423Y001856D01*
X010423Y002452D01*
X010329Y002546D01*
X009724Y002546D01*
X009630Y002452D01*
X009630Y001848D01*
X009648Y001830D01*
X009620Y001801D01*
X009620Y001039D01*
X009639Y001020D01*
X009379Y001020D01*
X009220Y001179D01*
X009220Y001615D01*
X009238Y001659D01*
X009238Y001801D01*
X009184Y001933D01*
X009083Y002034D01*
X008951Y002088D01*
X008949Y002088D01*
X008950Y002089D01*
X008950Y002707D01*
X010013Y002707D01*
X010024Y002718D01*
X010146Y002718D01*
X010239Y002812D01*
X010239Y003043D01*
X010225Y003057D01*
X010239Y003072D01*
X010239Y003303D01*
X010225Y003317D01*
X010239Y003332D01*
X010239Y003563D01*
X010225Y003577D01*
X010239Y003592D01*
X010239Y003823D01*
X010225Y003837D01*
X010239Y003852D01*
X010239Y004083D01*
X010225Y004097D01*
X010239Y004112D01*
X010239Y004343D01*
X010224Y004358D01*
X010237Y004372D01*
X010237Y004603D01*
X010224Y004616D01*
X010239Y004632D01*
X010239Y004863D01*
X010235Y004867D01*
X010247Y004888D01*
X010259Y004934D01*
X010259Y005007D01*
X009922Y005007D01*
X009922Y005007D01*
X010259Y005007D01*
X010259Y005080D01*
X010247Y005126D01*
X010235Y005147D01*
X010239Y005152D01*
X010239Y005383D01*
X010225Y005397D01*
X010239Y005412D01*
X010239Y005643D01*
X010225Y005657D01*
X010239Y005672D01*
X010239Y005903D01*
X010225Y005917D01*
X010239Y005932D01*
X010239Y006163D01*
X010235Y006167D01*
X010247Y006188D01*
X010259Y006234D01*
X010259Y006307D01*
X009922Y006307D01*
X009922Y006307D01*
X010259Y006307D01*
X010259Y006380D01*
X010247Y006426D01*
X010224Y006467D01*
X010190Y006500D01*
X010149Y006524D01*
X010103Y006536D01*
X009922Y006536D01*
X009741Y006536D01*
X009695Y006524D01*
X009654Y006500D01*
X009635Y006481D01*
X009633Y006484D01*
X009501Y006538D01*
X009359Y006538D01*
X009227Y006484D01*
X009126Y006383D01*
X009084Y006280D01*
X009041Y006298D01*
X008899Y006298D01*
X008820Y006265D01*
X008820Y007532D01*
X008828Y007542D01*
X008820Y007621D01*
X008820Y007701D01*
X008811Y007710D01*
X008810Y007723D01*
X008748Y007773D01*
X008691Y007830D01*
X008688Y007830D01*
X008688Y007901D01*
X008651Y007990D01*
X010228Y007990D01*
X010316Y008027D01*
X010429Y008140D01*
X010573Y008140D01*
X010573Y008082D01*
X010611Y008044D01*
X010589Y008022D01*
X010565Y007981D01*
X010553Y007936D01*
X010553Y007714D01*
X010912Y007714D01*
X010912Y007677D01*
X010948Y007677D01*
X010948Y007299D01*
X011151Y007299D01*
X011196Y007311D01*
X011237Y007335D01*
X011271Y007368D01*
X011288Y007398D01*
X011370Y007316D01*
X011322Y007201D01*
X011322Y007059D01*
X011376Y006927D01*
X011477Y006826D01*
X011609Y006772D01*
X011751Y006772D01*
X011883Y006826D01*
X011982Y006926D01*
X011982Y006500D01*
X011905Y006423D01*
X011905Y006402D01*
X011867Y006440D01*
X011067Y006440D01*
X011040Y006467D01*
X011040Y006917D01*
X010917Y007040D01*
X010717Y007240D01*
X010302Y007240D01*
X010302Y007332D01*
X010208Y007426D01*
X009761Y007426D01*
X009667Y007332D01*
X009667Y006728D01*
X009761Y006634D01*
X010208Y006634D01*
X010302Y006728D01*
X010302Y006820D01*
X010543Y006820D01*
X010620Y006743D01*
X010620Y006293D01*
X010770Y006143D01*
X010837Y006076D01*
X010376Y006076D01*
X010282Y005982D01*
X010282Y003251D01*
X010376Y003158D01*
X011768Y003158D01*
X011862Y003251D01*
X011862Y005851D01*
X011873Y005840D01*
X011905Y005840D01*
X011905Y005672D01*
X011919Y005657D01*
X011905Y005643D01*
X011905Y005412D01*
X011919Y005397D01*
X011905Y005383D01*
X011905Y005152D01*
X011919Y005137D01*
X011905Y005123D01*
X011905Y004892D01*
X011919Y004877D01*
X011905Y004863D01*
X011905Y004632D01*
X011920Y004616D01*
X011907Y004603D01*
X011907Y004372D01*
X011920Y004358D01*
X011905Y004343D01*
X011905Y004112D01*
X011919Y004097D01*
X011905Y004083D01*
X011905Y003852D01*
X011919Y003837D01*
X011905Y003823D01*
X011905Y003592D01*
X011919Y003577D01*
X011905Y003563D01*
X011905Y003332D01*
X011919Y003317D01*
X011905Y003303D01*
X011905Y003072D01*
X011919Y003057D01*
X011905Y003043D01*
X011905Y002812D01*
X011998Y002718D01*
X012370Y002718D01*
X012370Y001493D01*
X012301Y001340D02*
X012524Y001340D01*
X012146Y001181D02*
X014006Y001181D01*
X014006Y001023D02*
X011184Y001023D01*
X009636Y001023D02*
X009377Y001023D01*
X009280Y000780D02*
X008980Y001080D01*
X008980Y001630D01*
X008880Y001730D01*
X009232Y001815D02*
X009634Y001815D01*
X009630Y001974D02*
X009143Y001974D01*
X008950Y002132D02*
X009630Y002132D01*
X010027Y002150D02*
X010027Y001443D01*
X010040Y001430D01*
X010040Y001424D01*
X010036Y001420D01*
X009620Y001498D02*
X009220Y001498D01*
X009220Y001340D02*
X009620Y001340D01*
X009620Y001181D02*
X009220Y001181D01*
X008740Y001181D02*
X008338Y001181D01*
X008338Y001159D02*
X008338Y001301D01*
X008287Y001426D01*
X008522Y001661D01*
X008522Y001659D01*
X008576Y001527D01*
X008677Y001426D01*
X008740Y001400D01*
X008740Y001032D01*
X008777Y000944D01*
X008844Y000877D01*
X009011Y000710D01*
X006010Y000710D01*
X006180Y000781D01*
X006329Y000930D01*
X006354Y000990D01*
X006458Y000990D01*
X006458Y000928D01*
X006552Y000834D01*
X006999Y000834D01*
X007093Y000928D01*
X007093Y001532D01*
X006999Y001626D01*
X006552Y001626D01*
X006458Y001532D01*
X006458Y001470D01*
X006354Y001470D01*
X006329Y001530D01*
X006180Y001679D01*
X006058Y001730D01*
X006180Y001781D01*
X006329Y001930D01*
X006354Y001990D01*
X006458Y001990D01*
X006458Y001928D01*
X006552Y001834D01*
X006999Y001834D01*
X007093Y001928D01*
X007093Y002532D01*
X006999Y002626D01*
X006552Y002626D01*
X006458Y002532D01*
X006458Y002470D01*
X006354Y002470D01*
X006329Y002530D01*
X006180Y002679D01*
X006058Y002730D01*
X006180Y002781D01*
X006329Y002930D01*
X006354Y002990D01*
X006458Y002990D01*
X006458Y002928D01*
X006552Y002834D01*
X006999Y002834D01*
X007093Y002928D01*
X007093Y003532D01*
X006999Y003626D01*
X006552Y003626D01*
X006458Y003532D01*
X006458Y003470D01*
X006354Y003470D01*
X006329Y003530D01*
X006180Y003679D01*
X006058Y003730D01*
X006180Y003781D01*
X006329Y003930D01*
X006354Y003990D01*
X006458Y003990D01*
X006458Y003928D01*
X006552Y003834D01*
X006999Y003834D01*
X007093Y003928D01*
X007093Y004532D01*
X006999Y004626D01*
X006552Y004626D01*
X006458Y004532D01*
X006458Y004470D01*
X006354Y004470D01*
X006329Y004530D01*
X006180Y004679D01*
X006058Y004730D01*
X006180Y004781D01*
X006329Y004930D01*
X006354Y004990D01*
X006458Y004990D01*
X006458Y004928D01*
X006552Y004834D01*
X006999Y004834D01*
X007093Y004928D01*
X007093Y005532D01*
X006999Y005626D01*
X006552Y005626D01*
X006458Y005532D01*
X006458Y005470D01*
X006354Y005470D01*
X006329Y005530D01*
X006180Y005679D01*
X006058Y005730D01*
X006180Y005781D01*
X006329Y005930D01*
X006354Y005990D01*
X006458Y005990D01*
X006458Y005928D01*
X006552Y005834D01*
X006999Y005834D01*
X007093Y005928D01*
X007093Y006532D01*
X006999Y006626D01*
X006552Y006626D01*
X006458Y006532D01*
X006458Y006470D01*
X006354Y006470D01*
X006329Y006530D01*
X006180Y006679D01*
X006058Y006730D01*
X006180Y006781D01*
X006329Y006930D01*
X006354Y006990D01*
X006458Y006990D01*
X006458Y006928D01*
X006552Y006834D01*
X006999Y006834D01*
X007093Y006928D01*
X007093Y007532D01*
X006999Y007626D01*
X006552Y007626D01*
X006458Y007532D01*
X006458Y007470D01*
X006354Y007470D01*
X006329Y007530D01*
X006180Y007679D01*
X006058Y007730D01*
X006180Y007781D01*
X006329Y007930D01*
X006354Y007990D01*
X006458Y007990D01*
X006458Y007928D01*
X006552Y007834D01*
X006999Y007834D01*
X007093Y007928D01*
X007093Y008532D01*
X006999Y008626D01*
X006552Y008626D01*
X006458Y008532D01*
X006458Y008470D01*
X006354Y008470D01*
X006329Y008530D01*
X006180Y008679D01*
X006010Y008750D01*
X013489Y008750D01*
X013460Y008721D01*
X013460Y008670D01*
X012732Y008670D01*
X012644Y008633D01*
X012585Y008574D01*
X012060Y008574D01*
X011982Y008652D01*
X011378Y008652D01*
X011330Y008605D01*
X011287Y008605D01*
X011287Y008647D01*
X011193Y008741D01*
X010667Y008741D01*
X010573Y008647D01*
X010573Y008620D01*
X010282Y008620D01*
X010194Y008583D01*
X010127Y008516D01*
X010081Y008470D01*
X007802Y008470D01*
X007802Y008532D01*
X007708Y008626D01*
X007261Y008626D01*
X007167Y008532D01*
X007167Y007928D01*
X007244Y007850D01*
X007244Y007610D01*
X007167Y007532D01*
X007167Y006928D01*
X007244Y006850D01*
X007244Y006610D01*
X007167Y006532D01*
X007167Y005928D01*
X007244Y005850D01*
X007244Y005610D01*
X007167Y005532D01*
X007167Y004928D01*
X007244Y004850D01*
X007244Y004610D01*
X007167Y004532D01*
X007167Y003928D01*
X007244Y003850D01*
X007244Y003610D01*
X007167Y003532D01*
X007167Y002928D01*
X007244Y002850D01*
X007244Y002610D01*
X007167Y002532D01*
X007167Y001928D01*
X007244Y001850D01*
X007244Y001610D01*
X007167Y001532D01*
X007167Y000928D01*
X007261Y000834D01*
X007708Y000834D01*
X007794Y000920D01*
X007909Y000872D01*
X008051Y000872D01*
X008183Y000926D01*
X008284Y001027D01*
X008338Y001159D01*
X008279Y001023D02*
X008744Y001023D01*
X008857Y000864D02*
X007738Y000864D01*
X007230Y000864D02*
X007030Y000864D01*
X007093Y001023D02*
X007167Y001023D01*
X006522Y000864D02*
X006264Y000864D01*
X007093Y001181D02*
X007167Y001181D01*
X007484Y001230D02*
X007484Y002230D01*
X007484Y003230D01*
X007484Y004230D01*
X007484Y005230D01*
X007484Y006230D01*
X007484Y007230D01*
X007484Y008230D01*
X010180Y008230D01*
X010330Y008380D01*
X010815Y008380D01*
X010930Y008365D01*
X011650Y008365D01*
X011680Y008334D01*
X012734Y008334D01*
X012780Y008380D01*
X012780Y008430D01*
X013480Y008430D01*
X013605Y008305D01*
X013609Y008309D01*
X013638Y008159D01*
X013638Y008188D01*
X013680Y008230D01*
X013680Y008180D01*
X013630Y008130D01*
X013630Y008280D02*
X013605Y008305D01*
X013966Y008510D02*
X014045Y008431D01*
X014118Y008254D01*
X014118Y008064D01*
X014045Y007887D01*
X013910Y007752D01*
X013733Y007679D01*
X013543Y007679D01*
X013366Y007752D01*
X013231Y007887D01*
X013158Y008064D01*
X013158Y008190D01*
X013020Y008190D01*
X013020Y007332D01*
X012983Y007244D01*
X012916Y007177D01*
X012816Y007077D01*
X012728Y007040D01*
X012479Y007040D01*
X012462Y007023D01*
X012462Y006517D01*
X012590Y006517D01*
X012717Y006390D01*
X012840Y006267D01*
X012840Y005990D01*
X012867Y005990D01*
X012967Y005890D01*
X013020Y005837D01*
X013020Y006267D01*
X013143Y006390D01*
X013243Y006490D01*
X013343Y006490D01*
X013428Y006575D01*
X013428Y006726D01*
X013366Y006752D01*
X013231Y006887D01*
X013158Y007064D01*
X013158Y007254D01*
X013231Y007431D01*
X013366Y007566D01*
X013543Y007639D01*
X013733Y007639D01*
X013910Y007566D01*
X014045Y007431D01*
X014118Y007254D01*
X014118Y007064D01*
X014045Y006887D01*
X013910Y006752D01*
X013848Y006726D01*
X013848Y006401D01*
X013640Y006193D01*
X013517Y006070D01*
X013440Y006070D01*
X013440Y005746D01*
X013477Y005784D01*
X013609Y005838D01*
X013751Y005838D01*
X013883Y005784D01*
X013976Y005690D01*
X014254Y005690D01*
X014428Y005836D01*
X014428Y006726D01*
X014366Y006752D01*
X014231Y006887D01*
X014158Y007064D01*
X014158Y007254D01*
X014231Y007431D01*
X014366Y007566D01*
X014543Y007639D01*
X014733Y007639D01*
X014910Y007566D01*
X014920Y007556D01*
X014920Y007693D01*
X014875Y007738D01*
X014733Y007679D01*
X014543Y007679D01*
X014366Y007752D01*
X014231Y007887D01*
X014158Y008064D01*
X014158Y008254D01*
X014231Y008431D01*
X014310Y008510D01*
X013966Y008510D01*
X014004Y008472D02*
X014272Y008472D01*
X014182Y008314D02*
X014094Y008314D01*
X014118Y008155D02*
X014158Y008155D01*
X014186Y007997D02*
X014090Y007997D01*
X013996Y007838D02*
X014280Y007838D01*
X014541Y007680D02*
X013735Y007680D01*
X013541Y007680D02*
X013020Y007680D01*
X013020Y007838D02*
X013280Y007838D01*
X013186Y007997D02*
X013020Y007997D01*
X013020Y008155D02*
X013158Y008155D01*
X012780Y008380D02*
X012780Y007380D01*
X012680Y007280D01*
X012380Y007280D01*
X012222Y007122D01*
X012222Y006307D01*
X011905Y006412D02*
X011895Y006412D01*
X011982Y006570D02*
X011040Y006570D01*
X010620Y006570D02*
X008820Y006570D01*
X008820Y006412D02*
X009155Y006412D01*
X009094Y006614D02*
X009276Y006614D01*
X009457Y006614D01*
X009503Y006626D01*
X009544Y006650D01*
X009577Y006683D01*
X009601Y006724D01*
X009613Y006770D01*
X009613Y007030D01*
X009613Y007290D01*
X009601Y007336D01*
X009577Y007377D01*
X009544Y007410D01*
X009503Y007434D01*
X009457Y007446D01*
X009276Y007446D01*
X009276Y007030D01*
X009613Y007030D01*
X009276Y007030D01*
X009276Y007030D01*
X009276Y006614D01*
X009276Y007030D01*
X009276Y007030D01*
X009276Y007030D01*
X009276Y007446D01*
X009094Y007446D01*
X009049Y007434D01*
X009008Y007410D01*
X008974Y007377D01*
X008950Y007336D01*
X008938Y007290D01*
X008938Y007030D01*
X009276Y007030D01*
X008938Y007030D01*
X008938Y006770D01*
X008950Y006724D01*
X008974Y006683D01*
X009008Y006650D01*
X009049Y006626D01*
X009094Y006614D01*
X008949Y006729D02*
X008820Y006729D01*
X008820Y006887D02*
X008938Y006887D01*
X008938Y007046D02*
X008820Y007046D01*
X008820Y007204D02*
X008938Y007204D01*
X009276Y007204D02*
X009276Y007204D01*
X009613Y007204D02*
X009667Y007204D01*
X009667Y007046D02*
X009613Y007046D01*
X009613Y006887D02*
X009667Y006887D01*
X009276Y006887D02*
X009276Y006887D01*
X009276Y007030D02*
X009276Y007030D01*
X009276Y007046D02*
X009276Y007046D01*
X009276Y006729D02*
X009276Y006729D01*
X009602Y006729D02*
X009667Y006729D01*
X010302Y006729D02*
X010620Y006729D01*
X011040Y006729D02*
X011982Y006729D01*
X012462Y006729D02*
X013423Y006729D01*
X013853Y006729D02*
X014423Y006729D01*
X014428Y006570D02*
X013848Y006570D01*
X013848Y006412D02*
X014428Y006412D01*
X014428Y006253D02*
X013700Y006253D01*
X013541Y006095D02*
X014428Y006095D01*
X014428Y005936D02*
X013440Y005936D01*
X013020Y005936D02*
X012921Y005936D01*
X012840Y006095D02*
X013020Y006095D01*
X013020Y006253D02*
X012840Y006253D01*
X012695Y006412D02*
X013165Y006412D01*
X013423Y006570D02*
X012462Y006570D01*
X012462Y006887D02*
X013231Y006887D01*
X013165Y007046D02*
X012741Y007046D01*
X012943Y007204D02*
X013158Y007204D01*
X013203Y007363D02*
X013020Y007363D01*
X013020Y007521D02*
X013321Y007521D01*
X013955Y007521D02*
X014321Y007521D01*
X014203Y007363D02*
X014073Y007363D01*
X014118Y007204D02*
X014158Y007204D01*
X014165Y007046D02*
X014111Y007046D01*
X014045Y006887D02*
X014231Y006887D01*
X015275Y006729D02*
X015423Y006729D01*
X015366Y006752D02*
X015543Y006679D01*
X015733Y006679D01*
X015910Y006752D01*
X016045Y006887D01*
X016071Y006949D01*
X016436Y006949D01*
X016451Y006938D01*
X016521Y006949D01*
X016591Y006949D01*
X016604Y006962D01*
X016623Y006965D01*
X016664Y007022D01*
X016714Y007072D01*
X016714Y007091D01*
X016727Y007109D01*
X017151Y007109D01*
X017245Y007203D01*
X017245Y007847D01*
X017193Y007899D01*
X017245Y007951D01*
X017245Y008595D01*
X017151Y008689D01*
X016932Y008689D01*
X016871Y008750D01*
X030830Y008750D01*
X030830Y000710D01*
X026765Y000710D01*
X026765Y001855D01*
X025602Y001855D01*
X025602Y002015D01*
X025442Y002015D01*
X025442Y003335D01*
X024435Y003335D01*
X024390Y003323D01*
X024348Y003299D01*
X024315Y003266D01*
X024291Y003225D01*
X024279Y003179D01*
X024279Y002015D01*
X025442Y002015D01*
X025442Y001855D01*
X024279Y001855D01*
X024279Y000710D01*
X020207Y000710D01*
X020217Y000720D01*
X020340Y000843D01*
X020340Y001139D01*
X020422Y001173D01*
X020571Y001322D01*
X020572Y001323D01*
X020572Y001228D01*
X020584Y001183D01*
X020608Y001141D01*
X020641Y001108D01*
X020683Y001084D01*
X020728Y001072D01*
X021102Y001072D01*
X021102Y001602D01*
X021142Y001602D01*
X021142Y001642D01*
X021102Y001642D01*
X021102Y002172D01*
X020740Y002172D01*
X020823Y002206D01*
X020916Y002300D01*
X020987Y002300D01*
X021062Y002375D01*
X021067Y002358D01*
X021091Y002316D01*
X021124Y002283D01*
X021166Y002259D01*
X021211Y002247D01*
X021635Y002247D01*
X022059Y002247D01*
X022104Y002259D01*
X022146Y002283D01*
X022179Y002316D01*
X022203Y002358D01*
X022215Y002403D01*
X022215Y002557D01*
X022215Y002711D01*
X022203Y002756D01*
X022179Y002798D01*
X022155Y002821D01*
X022195Y002861D01*
X022195Y003253D01*
X022141Y003307D01*
X022195Y003361D01*
X022195Y003753D01*
X022141Y003807D01*
X022154Y003820D01*
X022280Y003820D01*
X022280Y003512D01*
X022317Y003424D01*
X022407Y003334D01*
X022474Y003267D01*
X022536Y003241D01*
X022536Y002897D01*
X022630Y002803D01*
X023628Y002803D01*
X023722Y002897D01*
X023722Y003235D01*
X024043Y003235D01*
X024131Y003272D01*
X024256Y003397D01*
X024323Y003464D01*
X024360Y003552D01*
X024360Y004335D01*
X024361Y004334D01*
X024887Y004334D01*
X024981Y004428D01*
X024981Y005190D01*
X024887Y005284D01*
X024361Y005284D01*
X024268Y005190D01*
X024268Y005060D01*
X024182Y005060D01*
X024094Y005023D01*
X024027Y004956D01*
X023917Y004846D01*
X023880Y004758D01*
X023880Y003715D01*
X023722Y003715D01*
X023722Y004053D01*
X023628Y004147D01*
X022632Y004147D01*
X022516Y004263D01*
X022428Y004300D01*
X022148Y004300D01*
X022101Y004347D01*
X021169Y004347D01*
X021149Y004327D01*
X021123Y004354D01*
X020991Y004408D01*
X020849Y004408D01*
X020717Y004354D01*
X020616Y004253D01*
X020562Y004121D01*
X020562Y003979D01*
X020616Y003847D01*
X020717Y003746D01*
X020825Y003702D01*
X020633Y003510D01*
X020561Y003438D01*
X020539Y003438D01*
X020407Y003384D01*
X020306Y003283D01*
X020252Y003151D01*
X020252Y003009D01*
X020306Y002877D01*
X020394Y002790D01*
X020316Y002713D01*
X020262Y002581D01*
X020262Y002565D01*
X020227Y002600D01*
X020060Y002767D01*
X019761Y002767D01*
X019721Y002807D01*
X019775Y002861D01*
X019775Y003253D01*
X019721Y003307D01*
X019775Y003361D01*
X019775Y003753D01*
X019721Y003807D01*
X019775Y003861D01*
X019775Y004253D01*
X019681Y004347D01*
X018749Y004347D01*
X018662Y004260D01*
X018603Y004260D01*
X018480Y004137D01*
X018350Y004007D01*
X018350Y003783D01*
X018241Y003828D01*
X018099Y003828D01*
X017967Y003774D01*
X017866Y003673D01*
X017845Y003620D01*
X017710Y003620D01*
X017716Y003627D01*
X017783Y003694D01*
X017820Y003782D01*
X017820Y004590D01*
X017928Y004590D01*
X018016Y004627D01*
X018116Y004727D01*
X018183Y004794D01*
X018220Y004882D01*
X018220Y004957D01*
X018243Y004957D01*
X018336Y005051D01*
X018336Y006797D01*
X018243Y006891D01*
X017716Y006891D01*
X017698Y006873D01*
X017696Y006875D01*
X017655Y006899D01*
X017610Y006911D01*
X017407Y006911D01*
X017407Y005942D01*
X017371Y005942D01*
X017371Y006911D01*
X017168Y006911D01*
X017123Y006899D01*
X017082Y006875D01*
X017080Y006873D01*
X017062Y006891D01*
X016535Y006891D01*
X016442Y006797D01*
X016442Y005367D01*
X016394Y005483D01*
X016293Y005584D01*
X016161Y005638D01*
X016019Y005638D01*
X015887Y005584D01*
X015786Y005483D01*
X015732Y005351D01*
X015732Y005313D01*
X015630Y005211D01*
X015630Y005038D01*
X015440Y005038D01*
X015440Y005334D01*
X015534Y005427D01*
X015588Y005559D01*
X015588Y005701D01*
X015534Y005833D01*
X015433Y005934D01*
X015301Y005988D01*
X015159Y005988D01*
X015040Y005939D01*
X015040Y006493D01*
X015217Y006670D01*
X015333Y006786D01*
X015366Y006752D01*
X015853Y006729D02*
X016442Y006729D01*
X016442Y006570D02*
X015117Y006570D01*
X015040Y006412D02*
X016442Y006412D01*
X016442Y006253D02*
X015040Y006253D01*
X015040Y006095D02*
X016442Y006095D01*
X016442Y005936D02*
X015427Y005936D01*
X015557Y005778D02*
X016442Y005778D01*
X016798Y005924D02*
X016798Y005012D01*
X017080Y004730D01*
X017080Y004030D01*
X017070Y004040D01*
X017068Y004040D01*
X016658Y004034D02*
X015288Y004034D01*
X015288Y004101D02*
X015288Y003959D01*
X015234Y003827D01*
X015133Y003726D01*
X015001Y003672D01*
X014859Y003672D01*
X014727Y003726D01*
X014630Y003824D01*
X014583Y003776D01*
X014511Y003746D01*
X014617Y003640D01*
X016658Y003640D01*
X016658Y004217D01*
X016752Y004310D01*
X016840Y004310D01*
X016840Y004631D01*
X016750Y004720D01*
X016750Y004312D01*
X016657Y004218D01*
X016342Y004218D01*
X015240Y004218D01*
X015288Y004101D01*
X015250Y004193D02*
X016658Y004193D01*
X016750Y004351D02*
X016840Y004351D01*
X016840Y004510D02*
X016750Y004510D01*
X016750Y004668D02*
X016803Y004668D01*
X017216Y004933D02*
X017283Y004866D01*
X017320Y004778D01*
X017320Y004310D01*
X017340Y004310D01*
X017340Y004778D01*
X017377Y004866D01*
X017444Y004933D01*
X017444Y004933D01*
X017448Y004937D01*
X017407Y004937D01*
X017407Y005906D01*
X017371Y005906D01*
X017371Y004937D01*
X017212Y004937D01*
X017216Y004933D01*
X017300Y004827D02*
X017360Y004827D01*
X017371Y004985D02*
X017407Y004985D01*
X017580Y004730D02*
X017680Y004830D01*
X017880Y004830D01*
X017980Y004930D01*
X017980Y005924D01*
X017980Y005924D01*
X018336Y005936D02*
X018878Y005936D01*
X018860Y005869D02*
X018860Y005571D01*
X018937Y005284D01*
X019086Y005026D01*
X019296Y004816D01*
X019554Y004667D01*
X019841Y004590D01*
X020139Y004590D01*
X020426Y004667D01*
X020684Y004816D01*
X020894Y005026D01*
X021043Y005284D01*
X021120Y005571D01*
X021120Y005869D01*
X021043Y006156D01*
X020894Y006414D01*
X020684Y006624D01*
X020426Y006773D01*
X020139Y006850D01*
X019841Y006850D01*
X019554Y006773D01*
X019296Y006624D01*
X019086Y006414D01*
X018937Y006156D01*
X018860Y005869D01*
X018860Y005778D02*
X018336Y005778D01*
X018336Y005619D02*
X018860Y005619D01*
X018890Y005461D02*
X018336Y005461D01*
X018336Y005302D02*
X018932Y005302D01*
X019018Y005144D02*
X018336Y005144D01*
X018271Y004985D02*
X019127Y004985D01*
X019285Y004827D02*
X018197Y004827D01*
X018116Y004727D02*
X018116Y004727D01*
X018057Y004668D02*
X019552Y004668D01*
X020428Y004668D02*
X022359Y004668D01*
X022354Y004689D02*
X022366Y004643D01*
X022390Y004602D01*
X022423Y004568D01*
X022464Y004545D01*
X022510Y004532D01*
X022926Y004532D01*
X022926Y005144D01*
X023086Y005144D01*
X023086Y004532D01*
X023502Y004532D01*
X023548Y004545D01*
X023589Y004568D01*
X023622Y004602D01*
X023646Y004643D01*
X023658Y004689D01*
X023658Y005144D01*
X023086Y005144D01*
X023086Y005304D01*
X023658Y005304D01*
X023658Y005760D01*
X023646Y005805D01*
X023622Y005846D01*
X023589Y005880D01*
X023548Y005904D01*
X023502Y005916D01*
X023086Y005916D01*
X023086Y005304D01*
X022926Y005304D01*
X022926Y005144D01*
X022354Y005144D01*
X022354Y004689D01*
X022926Y004668D02*
X023086Y004668D01*
X023653Y004668D02*
X023880Y004668D01*
X024120Y004710D02*
X024230Y004820D01*
X024613Y004820D01*
X024624Y004809D01*
X024981Y004827D02*
X026010Y004827D01*
X026010Y004727D02*
X026063Y004599D01*
X026063Y004428D01*
X026157Y004334D01*
X026683Y004334D01*
X026776Y004428D01*
X026776Y004599D01*
X026830Y004727D01*
X026830Y005865D01*
X026767Y006016D01*
X026474Y006309D01*
X026474Y006956D01*
X026380Y007049D01*
X025148Y007049D01*
X025054Y006956D01*
X025054Y006886D01*
X025040Y006900D01*
X025040Y007419D01*
X025048Y007460D01*
X025040Y007500D01*
X025040Y007542D01*
X025024Y007579D01*
X025016Y007620D01*
X024993Y007654D01*
X024978Y007692D01*
X024949Y007721D01*
X024793Y007954D01*
X024778Y007992D01*
X024749Y008021D01*
X024726Y008055D01*
X024692Y008078D01*
X024662Y008108D01*
X024624Y008123D01*
X024590Y008146D01*
X024550Y008154D01*
X024512Y008170D01*
X024471Y008170D01*
X024430Y008178D01*
X024390Y008170D01*
X023638Y008170D01*
X023638Y008322D01*
X023545Y008416D01*
X022467Y008416D01*
X022374Y008322D01*
X022374Y007166D01*
X022467Y007072D01*
X023545Y007072D01*
X023638Y007166D01*
X023638Y007350D01*
X024211Y007350D01*
X024220Y007336D01*
X024220Y006648D01*
X024282Y006498D01*
X024398Y006382D01*
X024688Y006092D01*
X024839Y006029D01*
X025054Y006029D01*
X025054Y005923D01*
X025148Y005829D01*
X025794Y005829D01*
X026010Y005614D01*
X026010Y004727D01*
X026034Y004668D02*
X024981Y004668D01*
X024981Y004510D02*
X026063Y004510D01*
X026139Y004351D02*
X024905Y004351D01*
X024360Y004193D02*
X028215Y004193D01*
X028194Y004172D02*
X028102Y003950D01*
X028102Y003710D01*
X028194Y003488D01*
X028364Y003319D01*
X028585Y003227D01*
X029711Y003227D01*
X029932Y003319D01*
X030102Y003488D01*
X030194Y003710D01*
X030194Y003950D01*
X030102Y004172D01*
X029932Y004341D01*
X029711Y004433D01*
X028585Y004433D01*
X028364Y004341D01*
X028194Y004172D01*
X028137Y004034D02*
X024360Y004034D01*
X024360Y003876D02*
X028102Y003876D01*
X028102Y003717D02*
X024360Y003717D01*
X024120Y003600D02*
X024120Y004710D01*
X023908Y004827D02*
X023658Y004827D01*
X023658Y004985D02*
X024056Y004985D01*
X024268Y005144D02*
X023658Y005144D01*
X023086Y005144D02*
X022926Y005144D01*
X022354Y005144D02*
X020962Y005144D01*
X021048Y005302D02*
X022926Y005302D01*
X022926Y005304D02*
X022354Y005304D01*
X022354Y005760D01*
X022366Y005805D01*
X022390Y005846D01*
X022423Y005880D01*
X022464Y005904D01*
X022510Y005916D01*
X022926Y005916D01*
X022926Y005304D01*
X023086Y005302D02*
X026010Y005302D01*
X026010Y005144D02*
X024981Y005144D01*
X024981Y004985D02*
X026010Y004985D01*
X026830Y004985D02*
X030830Y004985D01*
X030830Y004827D02*
X026830Y004827D01*
X026805Y004668D02*
X030830Y004668D01*
X030830Y004510D02*
X026776Y004510D01*
X026700Y004351D02*
X028387Y004351D01*
X029909Y004351D02*
X030830Y004351D01*
X030830Y004193D02*
X030081Y004193D01*
X030159Y004034D02*
X030830Y004034D01*
X030830Y003876D02*
X030194Y003876D01*
X030194Y003717D02*
X030830Y003717D01*
X030830Y003559D02*
X030131Y003559D01*
X030014Y003400D02*
X030830Y003400D01*
X030830Y003242D02*
X029746Y003242D01*
X030830Y003083D02*
X026765Y003083D01*
X026765Y003179D02*
X026753Y003225D01*
X026729Y003266D01*
X026696Y003299D01*
X026654Y003323D01*
X026609Y003335D01*
X025602Y003335D01*
X025602Y002015D01*
X026765Y002015D01*
X026765Y003179D01*
X026743Y003242D02*
X028550Y003242D01*
X028282Y003400D02*
X024259Y003400D01*
X024256Y003397D02*
X024256Y003397D01*
X024360Y003559D02*
X028165Y003559D01*
X026765Y002925D02*
X030830Y002925D01*
X030830Y002766D02*
X026765Y002766D01*
X026765Y002608D02*
X030830Y002608D01*
X030830Y002449D02*
X029665Y002449D01*
X029640Y002453D02*
X029216Y002453D01*
X029216Y001898D01*
X029080Y001898D01*
X029080Y001762D01*
X029216Y001762D01*
X029216Y001898D01*
X030211Y001898D01*
X030198Y001976D01*
X030168Y002069D01*
X030124Y002156D01*
X030066Y002236D01*
X029997Y002305D01*
X029917Y002363D01*
X029830Y002407D01*
X029737Y002438D01*
X029640Y002453D01*
X029216Y002449D02*
X029080Y002449D01*
X029080Y002453D02*
X028656Y002453D01*
X028559Y002438D01*
X028466Y002407D01*
X028379Y002363D01*
X028299Y002305D01*
X028230Y002236D01*
X028172Y002156D01*
X028128Y002069D01*
X028098Y001976D01*
X028085Y001898D01*
X029080Y001898D01*
X029080Y002453D01*
X028631Y002449D02*
X026765Y002449D01*
X026765Y002291D02*
X028285Y002291D01*
X028160Y002132D02*
X026765Y002132D01*
X026765Y001815D02*
X029080Y001815D01*
X029080Y001762D02*
X028085Y001762D01*
X028098Y001684D01*
X028128Y001591D01*
X028172Y001504D01*
X028230Y001424D01*
X028299Y001355D01*
X028379Y001297D01*
X028466Y001253D01*
X028559Y001222D01*
X028656Y001207D01*
X029080Y001207D01*
X029080Y001762D01*
X029080Y001657D02*
X029216Y001657D01*
X029216Y001762D02*
X029216Y001207D01*
X029640Y001207D01*
X029737Y001222D01*
X029830Y001253D01*
X029917Y001297D01*
X029997Y001355D01*
X030066Y001424D01*
X030124Y001504D01*
X030168Y001591D01*
X030198Y001684D01*
X030211Y001762D01*
X029216Y001762D01*
X029216Y001815D02*
X030830Y001815D01*
X030830Y001974D02*
X030199Y001974D01*
X030136Y002132D02*
X030830Y002132D01*
X030830Y002291D02*
X030011Y002291D01*
X029216Y002291D02*
X029080Y002291D01*
X029080Y002132D02*
X029216Y002132D01*
X029216Y001974D02*
X029080Y001974D01*
X028097Y001974D02*
X025602Y001974D01*
X025442Y001974D02*
X023742Y001974D01*
X023742Y002042D02*
X023730Y002088D01*
X023706Y002129D01*
X023673Y002163D01*
X023632Y002186D01*
X023586Y002199D01*
X023209Y002199D01*
X023209Y001587D01*
X023049Y001587D01*
X023049Y002199D01*
X022672Y002199D01*
X022626Y002186D01*
X022585Y002163D01*
X022552Y002129D01*
X022528Y002088D01*
X022516Y002042D01*
X022516Y001587D01*
X023049Y001587D01*
X023049Y001427D01*
X022516Y001427D01*
X022516Y000971D01*
X022528Y000925D01*
X022552Y000884D01*
X022585Y000851D01*
X022626Y000827D01*
X022672Y000815D01*
X023049Y000815D01*
X023049Y001427D01*
X023209Y001427D01*
X023209Y001587D01*
X023742Y001587D01*
X023742Y002042D01*
X023703Y002132D02*
X024279Y002132D01*
X024279Y002291D02*
X022153Y002291D01*
X022215Y002449D02*
X024279Y002449D01*
X024279Y002608D02*
X022215Y002608D01*
X022215Y002557D02*
X021635Y002557D01*
X021635Y002557D01*
X022215Y002557D01*
X022197Y002766D02*
X024279Y002766D01*
X024279Y002925D02*
X023722Y002925D01*
X023722Y003083D02*
X024279Y003083D01*
X024301Y003242D02*
X024058Y003242D01*
X023995Y003475D02*
X023129Y003475D01*
X023124Y003470D01*
X022610Y003470D01*
X022520Y003560D01*
X022520Y003920D01*
X022380Y004060D01*
X021632Y004060D01*
X021635Y004057D02*
X021628Y004050D01*
X020920Y004050D01*
X020591Y004193D02*
X019775Y004193D01*
X019775Y004034D02*
X020562Y004034D01*
X020605Y003876D02*
X019775Y003876D01*
X019775Y003717D02*
X020788Y003717D01*
X020682Y003559D02*
X019775Y003559D01*
X019775Y003400D02*
X020447Y003400D01*
X020633Y003510D02*
X020633Y003510D01*
X020289Y003242D02*
X019775Y003242D01*
X019775Y003083D02*
X020252Y003083D01*
X020287Y002925D02*
X019775Y002925D01*
X020061Y002766D02*
X020370Y002766D01*
X020273Y002608D02*
X020219Y002608D01*
X020907Y002291D02*
X021117Y002291D01*
X021142Y002172D02*
X021142Y001642D01*
X021672Y001642D01*
X021672Y002016D01*
X021660Y002061D01*
X021636Y002103D01*
X021603Y002136D01*
X021561Y002160D01*
X021516Y002172D01*
X021142Y002172D01*
X021142Y002132D02*
X021102Y002132D01*
X021607Y002132D02*
X022555Y002132D01*
X023049Y002132D02*
X023209Y002132D01*
X023209Y001974D02*
X023049Y001974D01*
X023049Y001815D02*
X023209Y001815D01*
X023742Y001815D02*
X024279Y001815D01*
X024279Y001657D02*
X023742Y001657D01*
X023209Y001657D02*
X023049Y001657D01*
X023049Y001498D02*
X021672Y001498D01*
X021672Y001340D02*
X022516Y001340D01*
X022516Y001181D02*
X021659Y001181D01*
X021660Y001183D02*
X021672Y001228D01*
X021672Y001602D01*
X021142Y001602D01*
X021142Y001072D01*
X021516Y001072D01*
X021561Y001084D01*
X021603Y001108D01*
X021636Y001141D01*
X021660Y001183D01*
X021142Y001181D02*
X021102Y001181D01*
X020585Y001181D02*
X020431Y001181D01*
X020340Y001023D02*
X022516Y001023D01*
X022572Y000864D02*
X020340Y000864D01*
X021102Y001340D02*
X021142Y001340D01*
X021142Y001498D02*
X021102Y001498D01*
X021102Y001657D02*
X021142Y001657D01*
X021672Y001657D02*
X022516Y001657D01*
X022516Y001815D02*
X021672Y001815D01*
X021672Y001974D02*
X022516Y001974D01*
X021635Y002247D02*
X021635Y002557D01*
X021635Y002557D01*
X021635Y002247D01*
X021635Y002291D02*
X021635Y002291D01*
X021635Y002449D02*
X021635Y002449D01*
X022195Y002925D02*
X022536Y002925D01*
X022536Y003083D02*
X022195Y003083D01*
X022195Y003242D02*
X022534Y003242D01*
X022341Y003400D02*
X022195Y003400D01*
X022195Y003559D02*
X022280Y003559D01*
X022280Y003717D02*
X022195Y003717D01*
X023722Y003717D02*
X023880Y003717D01*
X023995Y003475D02*
X024120Y003600D01*
X023880Y003876D02*
X023722Y003876D01*
X023722Y004034D02*
X023880Y004034D01*
X023880Y004193D02*
X022587Y004193D01*
X023880Y004351D02*
X021125Y004351D01*
X020715Y004351D02*
X017820Y004351D01*
X017820Y004510D02*
X023880Y004510D01*
X023086Y004827D02*
X022926Y004827D01*
X022926Y004985D02*
X023086Y004985D01*
X022354Y004985D02*
X020853Y004985D01*
X020695Y004827D02*
X022354Y004827D01*
X022354Y005461D02*
X021090Y005461D01*
X021120Y005619D02*
X022354Y005619D01*
X022926Y005619D02*
X023086Y005619D01*
X023086Y005461D02*
X022926Y005461D01*
X023658Y005461D02*
X026010Y005461D01*
X026005Y005619D02*
X023658Y005619D01*
X023654Y005778D02*
X025846Y005778D01*
X025054Y005936D02*
X021102Y005936D01*
X021060Y006095D02*
X024686Y006095D01*
X024527Y006253D02*
X020987Y006253D01*
X020896Y006412D02*
X024369Y006412D01*
X024252Y006570D02*
X020738Y006570D01*
X020503Y006729D02*
X024220Y006729D01*
X024220Y006887D02*
X018247Y006887D01*
X018336Y006729D02*
X019477Y006729D01*
X019242Y006570D02*
X018336Y006570D01*
X018336Y006412D02*
X019084Y006412D01*
X018993Y006253D02*
X018336Y006253D01*
X018336Y006095D02*
X018920Y006095D01*
X017407Y006095D02*
X017371Y006095D01*
X017371Y006253D02*
X017407Y006253D01*
X017407Y006412D02*
X017371Y006412D01*
X017371Y006570D02*
X017407Y006570D01*
X017407Y006729D02*
X017371Y006729D01*
X017371Y006887D02*
X017407Y006887D01*
X017676Y006887D02*
X017712Y006887D01*
X017102Y006887D02*
X017066Y006887D01*
X016688Y007046D02*
X024220Y007046D01*
X024220Y007204D02*
X023638Y007204D01*
X022374Y007204D02*
X020883Y007204D01*
X020896Y007217D02*
X020941Y007278D01*
X020975Y007346D01*
X020998Y007418D01*
X021010Y007492D01*
X021010Y007810D01*
X020550Y007810D01*
X020550Y007850D01*
X020510Y007850D01*
X020510Y008610D01*
X020492Y008610D01*
X020418Y008598D01*
X020346Y008575D01*
X020278Y008541D01*
X020217Y008496D01*
X020164Y008443D01*
X020119Y008382D01*
X020085Y008314D01*
X020062Y008242D01*
X020050Y008168D01*
X020050Y007850D01*
X020510Y007850D01*
X020510Y007810D01*
X020050Y007810D01*
X020050Y007492D01*
X020062Y007418D01*
X020085Y007346D01*
X020119Y007278D01*
X020164Y007217D01*
X020217Y007164D01*
X020278Y007119D01*
X020346Y007085D01*
X020418Y007062D01*
X020492Y007050D01*
X020510Y007050D01*
X020510Y007810D01*
X020550Y007810D01*
X020550Y007050D01*
X020568Y007050D01*
X020642Y007062D01*
X020714Y007085D01*
X020782Y007119D01*
X020843Y007164D01*
X020896Y007217D01*
X020550Y007204D02*
X020510Y007204D01*
X020177Y007204D02*
X019755Y007204D01*
X019691Y007140D02*
X019820Y007269D01*
X019890Y007438D01*
X019890Y008221D01*
X019820Y008391D01*
X019691Y008520D01*
X019521Y008590D01*
X019338Y008590D01*
X019169Y008520D01*
X019040Y008391D01*
X018970Y008221D01*
X018970Y007438D01*
X019040Y007269D01*
X019169Y007140D01*
X019338Y007070D01*
X019521Y007070D01*
X019691Y007140D01*
X019105Y007204D02*
X017245Y007204D01*
X017245Y007363D02*
X019001Y007363D01*
X018970Y007521D02*
X017245Y007521D01*
X017245Y007680D02*
X018970Y007680D01*
X018970Y007838D02*
X017245Y007838D01*
X017245Y007997D02*
X018970Y007997D01*
X018970Y008155D02*
X017245Y008155D01*
X016777Y008280D02*
X016770Y008273D01*
X017245Y008314D02*
X019008Y008314D01*
X019121Y008472D02*
X017245Y008472D01*
X017210Y008631D02*
X025118Y008631D01*
X025148Y008661D02*
X025054Y008567D01*
X025054Y007534D01*
X025148Y007441D01*
X025899Y007441D01*
X025948Y007420D01*
X028262Y007420D01*
X028364Y007319D01*
X028585Y007227D01*
X029711Y007227D01*
X029932Y007319D01*
X030102Y007488D01*
X030194Y007710D01*
X030194Y007950D01*
X030102Y008172D01*
X029932Y008341D01*
X029711Y008433D01*
X028585Y008433D01*
X028364Y008341D01*
X028262Y008240D01*
X026474Y008240D01*
X026474Y008567D01*
X026380Y008661D01*
X025148Y008661D01*
X025054Y008472D02*
X020867Y008472D01*
X020843Y008496D02*
X020782Y008541D01*
X020714Y008575D01*
X020642Y008598D01*
X020568Y008610D01*
X020550Y008610D01*
X020550Y007850D01*
X021010Y007850D01*
X021010Y008168D01*
X020998Y008242D01*
X020975Y008314D01*
X020941Y008382D01*
X020896Y008443D01*
X020843Y008496D01*
X020550Y008472D02*
X020510Y008472D01*
X020193Y008472D02*
X019739Y008472D01*
X019852Y008314D02*
X020085Y008314D01*
X020510Y008314D02*
X020550Y008314D01*
X020975Y008314D02*
X022374Y008314D01*
X022374Y008155D02*
X021010Y008155D01*
X020550Y008155D02*
X020510Y008155D01*
X020050Y008155D02*
X019890Y008155D01*
X019890Y007997D02*
X020050Y007997D01*
X019890Y007838D02*
X020510Y007838D01*
X020550Y007838D02*
X022374Y007838D01*
X022374Y007997D02*
X021010Y007997D01*
X020550Y007997D02*
X020510Y007997D01*
X020510Y007680D02*
X020550Y007680D01*
X021010Y007680D02*
X022374Y007680D01*
X022374Y007521D02*
X021010Y007521D01*
X020980Y007363D02*
X022374Y007363D01*
X020550Y007363D02*
X020510Y007363D01*
X020510Y007521D02*
X020550Y007521D01*
X020080Y007363D02*
X019859Y007363D01*
X019890Y007521D02*
X020050Y007521D01*
X020050Y007680D02*
X019890Y007680D01*
X016531Y006887D02*
X016045Y006887D01*
X016071Y007369D02*
X016045Y007431D01*
X015910Y007566D01*
X015733Y007639D01*
X015543Y007639D01*
X015366Y007566D01*
X015340Y007540D01*
X015340Y007757D01*
X015376Y007731D01*
X015446Y007696D01*
X015521Y007671D01*
X015599Y007659D01*
X015629Y007659D01*
X015629Y008150D01*
X015647Y008150D01*
X015647Y008168D01*
X016138Y008168D01*
X016138Y008198D01*
X016126Y008276D01*
X016101Y008351D01*
X016066Y008421D01*
X016019Y008485D01*
X015994Y008510D01*
X016295Y008510D01*
X016295Y007951D01*
X016347Y007899D01*
X016295Y007847D01*
X016295Y007369D01*
X016071Y007369D01*
X015955Y007521D02*
X016295Y007521D01*
X016295Y007680D02*
X015780Y007680D01*
X015755Y007671D02*
X015830Y007696D01*
X015900Y007731D01*
X015964Y007778D01*
X016019Y007833D01*
X016066Y007897D01*
X016101Y007967D01*
X016126Y008042D01*
X016138Y008120D01*
X016138Y008150D01*
X015647Y008150D01*
X015647Y007659D01*
X015677Y007659D01*
X015755Y007671D01*
X015647Y007680D02*
X015629Y007680D01*
X015496Y007680D02*
X015340Y007680D01*
X014920Y007680D02*
X014735Y007680D01*
X015629Y007838D02*
X015647Y007838D01*
X015647Y007997D02*
X015629Y007997D01*
X016023Y007838D02*
X016295Y007838D01*
X016295Y007997D02*
X016111Y007997D01*
X016295Y008155D02*
X015647Y008155D01*
X016114Y008314D02*
X016295Y008314D01*
X016295Y008472D02*
X016029Y008472D01*
X016871Y008750D02*
X016871Y008750D01*
X012641Y008631D02*
X012004Y008631D01*
X011356Y008631D02*
X011287Y008631D01*
X010573Y008631D02*
X006229Y008631D01*
X006353Y008472D02*
X006458Y008472D01*
X007093Y008472D02*
X007167Y008472D01*
X007167Y008314D02*
X007093Y008314D01*
X006780Y008230D02*
X006776Y008230D01*
X005880Y008230D01*
X007093Y008155D02*
X007167Y008155D01*
X007167Y007997D02*
X007093Y007997D01*
X007004Y007838D02*
X007244Y007838D01*
X006548Y007838D02*
X006238Y007838D01*
X006180Y007680D02*
X007244Y007680D01*
X007167Y007521D02*
X007093Y007521D01*
X007093Y007363D02*
X007167Y007363D01*
X006458Y007521D02*
X006333Y007521D01*
X006776Y007230D02*
X005880Y007230D01*
X006287Y006887D02*
X006499Y006887D01*
X007053Y006887D02*
X007207Y006887D01*
X007167Y007046D02*
X007093Y007046D01*
X007093Y007204D02*
X007167Y007204D01*
X008820Y007363D02*
X008966Y007363D01*
X008820Y007521D02*
X010553Y007521D01*
X010553Y007455D02*
X010565Y007409D01*
X010589Y007368D01*
X010623Y007335D01*
X010664Y007311D01*
X010709Y007299D01*
X010912Y007299D01*
X010912Y007677D01*
X010553Y007677D01*
X010553Y007455D01*
X010595Y007363D02*
X010272Y007363D01*
X009697Y007363D02*
X009585Y007363D01*
X009276Y007363D02*
X009276Y007363D01*
X008820Y007680D02*
X010912Y007680D01*
X010912Y007521D02*
X010948Y007521D01*
X010948Y007363D02*
X010912Y007363D01*
X011265Y007363D02*
X011323Y007363D01*
X011323Y007204D02*
X010753Y007204D01*
X010911Y007046D02*
X011327Y007046D01*
X011417Y006887D02*
X011040Y006887D01*
X011943Y006887D02*
X011982Y006887D01*
X010620Y006412D02*
X010251Y006412D01*
X009922Y006412D02*
X009922Y006412D01*
X009922Y006307D02*
X009922Y006536D01*
X009922Y006307D01*
X009922Y006307D01*
X010259Y006253D02*
X010660Y006253D01*
X010819Y006095D02*
X010239Y006095D01*
X010239Y005936D02*
X010282Y005936D01*
X010282Y005778D02*
X010239Y005778D01*
X010239Y005619D02*
X010282Y005619D01*
X010282Y005461D02*
X010239Y005461D01*
X010239Y005302D02*
X010282Y005302D01*
X010282Y005144D02*
X010237Y005144D01*
X010259Y004985D02*
X010282Y004985D01*
X010282Y004827D02*
X010239Y004827D01*
X010239Y004668D02*
X010282Y004668D01*
X010282Y004510D02*
X010237Y004510D01*
X010231Y004351D02*
X010282Y004351D01*
X010282Y004193D02*
X010239Y004193D01*
X010239Y004034D02*
X010282Y004034D01*
X010282Y003876D02*
X010239Y003876D01*
X010239Y003717D02*
X010282Y003717D01*
X010282Y003559D02*
X010239Y003559D01*
X010239Y003400D02*
X010282Y003400D01*
X010292Y003242D02*
X010239Y003242D01*
X010239Y003083D02*
X011905Y003083D01*
X011905Y002925D02*
X010239Y002925D01*
X010194Y002766D02*
X011950Y002766D01*
X012370Y002608D02*
X008950Y002608D01*
X008950Y002449D02*
X009630Y002449D01*
X009630Y002291D02*
X008950Y002291D01*
X010423Y002291D02*
X010437Y002291D01*
X010437Y002188D02*
X010815Y002188D01*
X010815Y002566D01*
X010593Y002566D01*
X010548Y002554D01*
X010507Y002530D01*
X010473Y002497D01*
X010449Y002456D01*
X010437Y002410D01*
X010437Y002188D01*
X010423Y002132D02*
X010815Y002132D01*
X010892Y002132D02*
X012370Y002132D01*
X012790Y002132D02*
X013278Y002132D01*
X013278Y001974D02*
X012790Y001974D01*
X012790Y001815D02*
X013278Y001815D01*
X013278Y001659D02*
X013297Y001640D01*
X012817Y001640D01*
X012790Y001667D01*
X012790Y003673D01*
X012820Y003643D01*
X012943Y003520D01*
X013278Y003520D01*
X013278Y002973D01*
X013270Y002960D01*
X013258Y002914D01*
X013258Y002781D01*
X013688Y002781D01*
X014118Y002781D01*
X014118Y002914D01*
X014106Y002960D01*
X014098Y002973D01*
X014098Y003515D01*
X014148Y003515D01*
X014320Y003343D01*
X014443Y003220D01*
X016370Y003220D01*
X016370Y002793D01*
X016592Y002571D01*
X016638Y002571D01*
X016638Y002466D01*
X017068Y002466D01*
X017068Y002466D01*
X017498Y002466D01*
X017498Y002599D01*
X017486Y002645D01*
X017478Y002658D01*
X017478Y002903D01*
X017486Y002916D01*
X017498Y002962D01*
X017498Y003095D01*
X017068Y003095D01*
X017068Y003095D01*
X017498Y003095D01*
X017498Y003200D01*
X017933Y003200D01*
X017967Y003166D01*
X018099Y003112D01*
X018220Y003112D01*
X018220Y002367D01*
X017997Y002144D01*
X017822Y002071D01*
X017673Y001922D01*
X017592Y001727D01*
X017592Y001517D01*
X017673Y001322D01*
X017822Y001173D01*
X017828Y001170D01*
X017014Y001170D01*
X016902Y001319D01*
X016902Y001335D01*
X016851Y001386D01*
X016807Y001444D01*
X016791Y001446D01*
X016779Y001458D01*
X016750Y001458D01*
X016750Y001564D01*
X016695Y001620D01*
X016697Y001620D01*
X016752Y001566D01*
X017384Y001566D01*
X017478Y001659D01*
X017478Y002273D01*
X017486Y002286D01*
X017498Y002332D01*
X017498Y002466D01*
X017068Y002466D01*
X017068Y002466D01*
X016638Y002466D01*
X016638Y002332D01*
X016650Y002286D01*
X016658Y002273D01*
X016658Y002179D01*
X016457Y002380D01*
X014533Y002380D01*
X014410Y002257D01*
X014098Y001945D01*
X014098Y002012D01*
X014098Y002588D01*
X014106Y002601D01*
X014118Y002647D01*
X014118Y002781D01*
X013688Y002781D01*
X013688Y002781D01*
X013688Y002781D01*
X013258Y002781D01*
X013258Y002647D01*
X013270Y002601D01*
X013278Y002588D01*
X013278Y001659D01*
X013281Y001657D02*
X012800Y001657D01*
X012370Y001657D02*
X012303Y001657D01*
X012370Y001815D02*
X012155Y001815D01*
X012370Y001974D02*
X011270Y001974D01*
X011240Y001815D02*
X011805Y001815D01*
X011200Y001770D02*
X011200Y001770D01*
X010437Y001974D02*
X010423Y001974D01*
X009620Y001657D02*
X009237Y001657D01*
X008523Y001657D02*
X008518Y001657D01*
X008606Y001498D02*
X008359Y001498D01*
X008322Y001340D02*
X008740Y001340D01*
X007244Y001657D02*
X006203Y001657D01*
X006215Y001815D02*
X007244Y001815D01*
X007167Y001974D02*
X007093Y001974D01*
X006458Y001974D02*
X006347Y001974D01*
X007093Y002132D02*
X007167Y002132D01*
X006776Y002230D02*
X005880Y002230D01*
X007093Y002291D02*
X007167Y002291D01*
X007167Y002449D02*
X007093Y002449D01*
X007018Y002608D02*
X007242Y002608D01*
X006533Y002608D02*
X006252Y002608D01*
X006145Y002766D02*
X007244Y002766D01*
X007170Y002925D02*
X007090Y002925D01*
X007093Y003083D02*
X007167Y003083D01*
X006461Y002925D02*
X006324Y002925D01*
X005880Y003230D02*
X006776Y003230D01*
X007093Y003242D02*
X007167Y003242D01*
X007167Y003400D02*
X007093Y003400D01*
X007067Y003559D02*
X007193Y003559D01*
X006484Y003559D02*
X006301Y003559D01*
X006089Y003717D02*
X007244Y003717D01*
X007219Y003876D02*
X007041Y003876D01*
X007093Y004034D02*
X007167Y004034D01*
X006510Y003876D02*
X006275Y003876D01*
X005880Y004230D02*
X006776Y004230D01*
X007093Y004193D02*
X007167Y004193D01*
X007167Y004351D02*
X007093Y004351D01*
X007093Y004510D02*
X007167Y004510D01*
X006458Y004510D02*
X006338Y004510D01*
X006192Y004668D02*
X007244Y004668D01*
X007244Y004827D02*
X006226Y004827D01*
X006352Y004985D02*
X006458Y004985D01*
X007093Y004985D02*
X007167Y004985D01*
X007167Y005144D02*
X007093Y005144D01*
X006776Y005230D02*
X005880Y005230D01*
X007093Y005302D02*
X007167Y005302D01*
X007167Y005461D02*
X007093Y005461D01*
X007007Y005619D02*
X007244Y005619D01*
X006545Y005619D02*
X006241Y005619D01*
X006173Y005778D02*
X007244Y005778D01*
X007167Y005936D02*
X007093Y005936D01*
X007093Y006095D02*
X007167Y006095D01*
X006458Y005936D02*
X006332Y005936D01*
X006776Y006230D02*
X005880Y006230D01*
X006290Y006570D02*
X006496Y006570D01*
X007056Y006570D02*
X007204Y006570D01*
X007167Y006412D02*
X007093Y006412D01*
X007093Y006253D02*
X007167Y006253D01*
X007244Y006729D02*
X006061Y006729D01*
X003860Y006250D02*
X003860Y006210D01*
X003330Y006210D01*
X003330Y006187D01*
X003344Y006101D01*
X003370Y006019D01*
X003410Y005942D01*
X003460Y005872D01*
X003522Y005810D01*
X003592Y005760D01*
X003650Y005730D01*
X003592Y005700D01*
X003522Y005650D01*
X003460Y005588D01*
X003410Y005518D01*
X003370Y005441D01*
X003344Y005359D01*
X003330Y005273D01*
X003330Y005250D01*
X003860Y005250D01*
X003860Y005210D01*
X003330Y005210D01*
X003330Y005187D01*
X003344Y005101D01*
X003370Y005019D01*
X003410Y004942D01*
X003460Y004872D01*
X003522Y004810D01*
X003592Y004760D01*
X003650Y004730D01*
X003592Y004700D01*
X003522Y004650D01*
X003460Y004588D01*
X003410Y004518D01*
X003370Y004441D01*
X003344Y004359D01*
X003330Y004273D01*
X003330Y004250D01*
X003860Y004250D01*
X003860Y004210D01*
X003330Y004210D01*
X003330Y004187D01*
X003344Y004101D01*
X003370Y004019D01*
X003410Y003942D01*
X003460Y003872D01*
X003522Y003810D01*
X003592Y003760D01*
X003650Y003730D01*
X003592Y003700D01*
X003522Y003650D01*
X003460Y003588D01*
X003410Y003518D01*
X003370Y003441D01*
X003344Y003359D01*
X003330Y003273D01*
X003330Y003250D01*
X003860Y003250D01*
X003860Y003210D01*
X003330Y003210D01*
X003330Y003187D01*
X003344Y003101D01*
X003370Y003019D01*
X003410Y002942D01*
X003460Y002872D01*
X003522Y002810D01*
X003592Y002760D01*
X003650Y002730D01*
X003592Y002700D01*
X003522Y002650D01*
X003460Y002588D01*
X003410Y002518D01*
X003370Y002441D01*
X003344Y002359D01*
X003330Y002273D01*
X003330Y002250D01*
X003860Y002250D01*
X003860Y002210D01*
X003330Y002210D01*
X003330Y002187D01*
X003344Y002101D01*
X003370Y002019D01*
X003410Y001942D01*
X003460Y001872D01*
X003522Y001810D01*
X003592Y001760D01*
X003650Y001730D01*
X003592Y001700D01*
X003522Y001650D01*
X003460Y001588D01*
X003410Y001518D01*
X003370Y001441D01*
X003344Y001359D01*
X003330Y001273D01*
X003330Y001250D01*
X003860Y001250D01*
X003860Y001210D01*
X003330Y001210D01*
X003330Y001187D01*
X003344Y001101D01*
X003370Y001019D01*
X003410Y000942D01*
X003460Y000872D01*
X003522Y000810D01*
X003592Y000760D01*
X003669Y000720D01*
X003701Y000710D01*
X002258Y000710D01*
X002334Y000786D01*
X002483Y001044D01*
X002560Y001331D01*
X002560Y001629D01*
X002483Y001916D01*
X002334Y002174D01*
X002124Y002384D01*
X001866Y002533D01*
X001579Y002610D01*
X001281Y002610D01*
X000994Y002533D01*
X000736Y002384D01*
X000660Y002308D01*
X000660Y007152D01*
X000836Y006976D01*
X001094Y006827D01*
X001381Y006750D01*
X001679Y006750D01*
X001966Y006827D01*
X002224Y006976D01*
X002434Y007186D01*
X002583Y007444D01*
X002660Y007731D01*
X002660Y008029D01*
X002583Y008316D01*
X002434Y008574D01*
X002258Y008750D01*
X003701Y008750D01*
X003669Y008740D01*
X003592Y008700D01*
X003522Y008650D01*
X003460Y008588D01*
X003410Y008518D01*
X003370Y008441D01*
X003344Y008359D01*
X003330Y008273D01*
X003330Y008250D01*
X003860Y008250D01*
X003860Y008750D01*
X003900Y008750D01*
X003900Y008250D01*
X003860Y008250D01*
X003860Y008210D01*
X003330Y008210D01*
X003330Y008187D01*
X003344Y008101D01*
X003370Y008019D01*
X003410Y007942D01*
X003460Y007872D01*
X003522Y007810D01*
X003592Y007760D01*
X003650Y007730D01*
X003592Y007700D01*
X003522Y007650D01*
X003460Y007588D01*
X003410Y007518D01*
X003370Y007441D01*
X003344Y007359D01*
X003330Y007273D01*
X003330Y007250D01*
X003860Y007250D01*
X003860Y007210D01*
X003330Y007210D01*
X003330Y007187D01*
X003344Y007101D01*
X003370Y007019D01*
X003410Y006942D01*
X003460Y006872D01*
X003522Y006810D01*
X003592Y006760D01*
X003650Y006730D01*
X003592Y006700D01*
X003522Y006650D01*
X003460Y006588D01*
X003410Y006518D01*
X003370Y006441D01*
X003344Y006359D01*
X003330Y006273D01*
X003330Y006250D01*
X003860Y006250D01*
X003330Y006253D02*
X000660Y006253D01*
X000660Y006095D02*
X003346Y006095D01*
X003414Y005936D02*
X000660Y005936D01*
X000660Y005778D02*
X003567Y005778D01*
X003491Y005619D02*
X000660Y005619D01*
X000660Y005461D02*
X003380Y005461D01*
X003335Y005302D02*
X000660Y005302D01*
X000660Y005144D02*
X003337Y005144D01*
X003388Y004985D02*
X000660Y004985D01*
X000660Y004827D02*
X003506Y004827D01*
X003547Y004668D02*
X000660Y004668D01*
X000660Y004510D02*
X003405Y004510D01*
X003342Y004351D02*
X000660Y004351D01*
X000660Y004193D02*
X003330Y004193D01*
X003365Y004034D02*
X000660Y004034D01*
X000660Y003876D02*
X003458Y003876D01*
X003624Y003717D02*
X000660Y003717D01*
X000660Y003559D02*
X003439Y003559D01*
X003357Y003400D02*
X000660Y003400D01*
X000660Y003242D02*
X003860Y003242D01*
X003349Y003083D02*
X000660Y003083D01*
X000660Y002925D02*
X003422Y002925D01*
X003583Y002766D02*
X000660Y002766D01*
X000660Y002608D02*
X001272Y002608D01*
X001588Y002608D02*
X003480Y002608D01*
X003374Y002449D02*
X002012Y002449D01*
X002218Y002291D02*
X003333Y002291D01*
X003339Y002132D02*
X002358Y002132D01*
X002450Y001974D02*
X003393Y001974D01*
X003517Y001815D02*
X002510Y001815D01*
X002553Y001657D02*
X003531Y001657D01*
X003399Y001498D02*
X002560Y001498D01*
X002560Y001340D02*
X003340Y001340D01*
X003331Y001181D02*
X002520Y001181D01*
X002471Y001023D02*
X003369Y001023D01*
X003468Y000864D02*
X002379Y000864D01*
X005880Y001230D02*
X006776Y001230D01*
X007093Y001340D02*
X007167Y001340D01*
X007167Y001498D02*
X007093Y001498D01*
X006458Y001498D02*
X006343Y001498D01*
X009280Y000780D02*
X015380Y000780D01*
X015535Y000935D01*
X015535Y001248D01*
X016750Y001498D02*
X017600Y001498D01*
X017665Y001340D02*
X016897Y001340D01*
X017006Y001181D02*
X017813Y001181D01*
X017592Y001657D02*
X017475Y001657D01*
X017478Y001815D02*
X017628Y001815D01*
X017724Y001974D02*
X017478Y001974D01*
X017478Y002132D02*
X017968Y002132D01*
X018144Y002291D02*
X017487Y002291D01*
X017498Y002449D02*
X018220Y002449D01*
X018220Y002608D02*
X017496Y002608D01*
X017478Y002766D02*
X018220Y002766D01*
X018220Y002925D02*
X017488Y002925D01*
X017498Y003083D02*
X018220Y003083D01*
X016556Y002608D02*
X014107Y002608D01*
X014098Y002449D02*
X016638Y002449D01*
X016649Y002291D02*
X016546Y002291D01*
X016397Y002766D02*
X014118Y002766D01*
X014115Y002925D02*
X016370Y002925D01*
X016370Y003083D02*
X014098Y003083D01*
X014098Y003242D02*
X014422Y003242D01*
X014263Y003400D02*
X014098Y003400D01*
X014540Y003717D02*
X014750Y003717D01*
X015110Y003717D02*
X016658Y003717D01*
X017068Y003725D02*
X017475Y003725D01*
X017580Y003830D01*
X017580Y004730D01*
X017340Y004668D02*
X017320Y004668D01*
X017320Y004510D02*
X017340Y004510D01*
X017340Y004351D02*
X017320Y004351D01*
X017820Y004193D02*
X018536Y004193D01*
X018377Y004034D02*
X017820Y004034D01*
X017820Y003876D02*
X018350Y003876D01*
X017911Y003717D02*
X017793Y003717D01*
X016658Y003876D02*
X015254Y003876D01*
X013278Y003400D02*
X012790Y003400D01*
X012790Y003559D02*
X012905Y003559D01*
X012790Y003242D02*
X013278Y003242D01*
X013278Y003083D02*
X012790Y003083D01*
X012790Y002925D02*
X013261Y002925D01*
X013258Y002766D02*
X012790Y002766D01*
X012790Y002608D02*
X013269Y002608D01*
X013278Y002449D02*
X012790Y002449D01*
X012370Y002449D02*
X011259Y002449D01*
X010891Y002449D02*
X010815Y002449D01*
X010448Y002449D02*
X010423Y002449D01*
X010815Y002291D02*
X010891Y002291D01*
X011270Y002291D02*
X012370Y002291D01*
X012790Y002291D02*
X013278Y002291D01*
X014098Y002291D02*
X014444Y002291D01*
X014285Y002132D02*
X014098Y002132D01*
X014098Y001974D02*
X014127Y001974D01*
X011905Y003242D02*
X011852Y003242D01*
X011862Y003400D02*
X011905Y003400D01*
X011905Y003559D02*
X011862Y003559D01*
X011862Y003717D02*
X011905Y003717D01*
X011905Y003876D02*
X011862Y003876D01*
X011862Y004034D02*
X011905Y004034D01*
X011905Y004193D02*
X011862Y004193D01*
X011862Y004351D02*
X011913Y004351D01*
X011907Y004510D02*
X011862Y004510D01*
X011862Y004668D02*
X011905Y004668D01*
X011905Y004827D02*
X011862Y004827D01*
X011862Y004985D02*
X011905Y004985D01*
X011913Y005144D02*
X011862Y005144D01*
X011862Y005302D02*
X011905Y005302D01*
X011905Y005461D02*
X011862Y005461D01*
X011862Y005619D02*
X011905Y005619D01*
X011905Y005778D02*
X011862Y005778D01*
X013440Y005778D02*
X013471Y005778D01*
X013889Y005778D02*
X014358Y005778D01*
X015547Y005461D02*
X015777Y005461D01*
X015588Y005619D02*
X015973Y005619D01*
X016207Y005619D02*
X016442Y005619D01*
X016442Y005461D02*
X016403Y005461D01*
X015721Y005302D02*
X015440Y005302D01*
X015440Y005144D02*
X015630Y005144D01*
X017371Y005144D02*
X017407Y005144D01*
X017407Y005302D02*
X017371Y005302D01*
X017371Y005461D02*
X017407Y005461D01*
X017407Y005619D02*
X017371Y005619D01*
X017371Y005778D02*
X017407Y005778D01*
X021120Y005778D02*
X022358Y005778D01*
X022926Y005778D02*
X023086Y005778D01*
X026474Y006412D02*
X028533Y006412D01*
X028585Y006433D02*
X028364Y006341D01*
X028194Y006172D01*
X028102Y005950D01*
X028102Y005710D01*
X028194Y005488D01*
X028364Y005319D01*
X028585Y005227D01*
X029711Y005227D01*
X029932Y005319D01*
X030102Y005488D01*
X030194Y005710D01*
X030194Y005950D01*
X030102Y006172D01*
X029932Y006341D01*
X029711Y006433D01*
X028585Y006433D01*
X028275Y006253D02*
X026530Y006253D01*
X026689Y006095D02*
X028162Y006095D01*
X028102Y005936D02*
X026800Y005936D01*
X026830Y005778D02*
X028102Y005778D01*
X028140Y005619D02*
X026830Y005619D01*
X026830Y005461D02*
X028222Y005461D01*
X028404Y005302D02*
X026830Y005302D01*
X026830Y005144D02*
X030830Y005144D01*
X030830Y005302D02*
X029892Y005302D01*
X030074Y005461D02*
X030830Y005461D01*
X030830Y005619D02*
X030156Y005619D01*
X030194Y005778D02*
X030830Y005778D01*
X030830Y005936D02*
X030194Y005936D01*
X030134Y006095D02*
X030830Y006095D01*
X030830Y006253D02*
X030021Y006253D01*
X029763Y006412D02*
X030830Y006412D01*
X030830Y006570D02*
X026474Y006570D01*
X026474Y006729D02*
X030830Y006729D01*
X030830Y006887D02*
X026474Y006887D01*
X026384Y007046D02*
X030830Y007046D01*
X030830Y007204D02*
X025040Y007204D01*
X025040Y007046D02*
X025144Y007046D01*
X025054Y006887D02*
X025053Y006887D01*
X025040Y007363D02*
X028320Y007363D01*
X029976Y007363D02*
X030830Y007363D01*
X030830Y007521D02*
X030116Y007521D01*
X030181Y007680D02*
X030830Y007680D01*
X030830Y007838D02*
X030194Y007838D01*
X030175Y007997D02*
X030830Y007997D01*
X030830Y008155D02*
X030109Y008155D01*
X029960Y008314D02*
X030830Y008314D01*
X030830Y008472D02*
X026474Y008472D01*
X026410Y008631D02*
X030830Y008631D01*
X031550Y008631D02*
X039600Y008631D01*
X039600Y008750D02*
X031550Y008750D01*
X031550Y000710D01*
X039600Y000710D01*
X039600Y008750D01*
X039600Y008472D02*
X031550Y008472D01*
X031550Y008314D02*
X032443Y008314D01*
X032431Y008305D02*
X032362Y008236D01*
X032304Y008156D01*
X032260Y008069D01*
X032230Y007976D01*
X032217Y007898D01*
X033212Y007898D01*
X033212Y008453D01*
X032788Y008453D01*
X032691Y008438D01*
X032598Y008407D01*
X032511Y008363D01*
X032431Y008305D01*
X032304Y008155D02*
X031550Y008155D01*
X031550Y007997D02*
X032236Y007997D01*
X032217Y007762D02*
X032230Y007684D01*
X032260Y007591D01*
X032304Y007504D01*
X032362Y007424D01*
X032431Y007355D01*
X032511Y007297D01*
X032598Y007253D01*
X032691Y007222D01*
X032788Y007207D01*
X033212Y007207D01*
X033212Y007762D01*
X033348Y007762D01*
X033348Y007898D01*
X033212Y007898D01*
X033212Y007762D01*
X032217Y007762D01*
X032231Y007680D02*
X031550Y007680D01*
X031550Y007838D02*
X033212Y007838D01*
X033348Y007838D02*
X035390Y007838D01*
X035390Y007880D02*
X035390Y007726D01*
X035402Y007681D01*
X035426Y007639D01*
X035445Y007620D01*
X035032Y007620D01*
X034944Y007583D01*
X034877Y007516D01*
X034627Y007266D01*
X034590Y007178D01*
X034590Y006179D01*
X034481Y006070D01*
X034276Y006070D01*
X034234Y006172D01*
X034064Y006341D01*
X033843Y006433D01*
X032717Y006433D01*
X032496Y006341D01*
X032326Y006172D01*
X032234Y005950D01*
X032234Y005710D01*
X032326Y005488D01*
X032496Y005319D01*
X032717Y005227D01*
X033843Y005227D01*
X034064Y005319D01*
X034234Y005488D01*
X034276Y005590D01*
X034628Y005590D01*
X034716Y005627D01*
X034890Y005801D01*
X034890Y004329D01*
X034631Y004070D01*
X034276Y004070D01*
X034234Y004172D01*
X034064Y004341D01*
X033843Y004433D01*
X032717Y004433D01*
X032496Y004341D01*
X032326Y004172D01*
X032234Y003950D01*
X032234Y003710D01*
X032326Y003488D01*
X032496Y003319D01*
X032717Y003227D01*
X033843Y003227D01*
X034064Y003319D01*
X034234Y003488D01*
X034276Y003590D01*
X034778Y003590D01*
X034866Y003627D01*
X035266Y004027D01*
X035333Y004094D01*
X035370Y004182D01*
X035370Y006481D01*
X035410Y006521D01*
X035410Y006184D01*
X035424Y006170D01*
X035390Y006088D01*
X035390Y002579D01*
X034881Y002070D01*
X034276Y002070D01*
X034234Y002172D01*
X034064Y002341D01*
X033843Y002433D01*
X032717Y002433D01*
X032496Y002341D01*
X032326Y002172D01*
X032234Y001950D01*
X032234Y001710D01*
X032326Y001488D01*
X032496Y001319D01*
X032717Y001227D01*
X033843Y001227D01*
X034064Y001319D01*
X034234Y001488D01*
X034276Y001590D01*
X035028Y001590D01*
X035116Y001627D01*
X035766Y002277D01*
X035833Y002344D01*
X035870Y002432D01*
X035870Y005941D01*
X036019Y006090D01*
X036436Y006090D01*
X036490Y006144D01*
X036490Y005729D01*
X036244Y005483D01*
X036177Y005416D01*
X036140Y005328D01*
X036140Y002882D01*
X036177Y002794D01*
X036427Y002544D01*
X036494Y002477D01*
X036582Y002440D01*
X036756Y002440D01*
X036781Y002380D01*
X036930Y002231D01*
X036931Y002230D01*
X036836Y002230D01*
X036791Y002218D01*
X036749Y002194D01*
X036716Y002161D01*
X036692Y002119D01*
X036680Y002074D01*
X036680Y001700D01*
X037210Y001700D01*
X037210Y001660D01*
X037250Y001660D01*
X037250Y001700D01*
X037780Y001700D01*
X037780Y002074D01*
X037768Y002119D01*
X037744Y002161D01*
X037711Y002194D01*
X037669Y002218D01*
X037624Y002230D01*
X037529Y002230D01*
X037530Y002231D01*
X037679Y002380D01*
X037760Y002575D01*
X037760Y002785D01*
X037679Y002980D01*
X037530Y003129D01*
X037408Y003180D01*
X037530Y003231D01*
X037679Y003380D01*
X037760Y003575D01*
X037760Y003785D01*
X037679Y003980D01*
X037530Y004129D01*
X037408Y004180D01*
X037530Y004231D01*
X037679Y004380D01*
X037704Y004440D01*
X038178Y004440D01*
X038266Y004477D01*
X038333Y004544D01*
X038593Y004804D01*
X038630Y004892D01*
X038630Y006090D01*
X038856Y006090D01*
X038950Y006184D01*
X038950Y006576D01*
X038896Y006630D01*
X038950Y006684D01*
X038950Y007076D01*
X038896Y007130D01*
X038950Y007184D01*
X038950Y007576D01*
X038896Y007630D01*
X038950Y007684D01*
X038950Y008076D01*
X038856Y008170D01*
X037924Y008170D01*
X037874Y008120D01*
X036832Y008120D01*
X036744Y008083D01*
X036594Y007933D01*
X036550Y007889D01*
X036550Y008034D01*
X036538Y008079D01*
X036514Y008121D01*
X036481Y008154D01*
X036439Y008178D01*
X036394Y008190D01*
X035970Y008190D01*
X035970Y007880D01*
X035970Y007880D01*
X035970Y007880D01*
X035390Y007880D01*
X035390Y008034D01*
X035402Y008079D01*
X035426Y008121D01*
X035459Y008154D01*
X035501Y008178D01*
X035546Y008190D01*
X035970Y008190D01*
X035970Y007880D01*
X035390Y007880D01*
X035390Y007997D02*
X034324Y007997D01*
X034330Y007976D02*
X034300Y008069D01*
X034256Y008156D01*
X034198Y008236D01*
X034129Y008305D01*
X034049Y008363D01*
X033962Y008407D01*
X033869Y008438D01*
X033772Y008453D01*
X033348Y008453D01*
X033348Y007898D01*
X034343Y007898D01*
X034330Y007976D01*
X034256Y008155D02*
X035461Y008155D01*
X035970Y008155D02*
X035970Y008155D01*
X036479Y008155D02*
X037909Y008155D01*
X038871Y008155D02*
X039600Y008155D01*
X039600Y007997D02*
X038950Y007997D01*
X038950Y007838D02*
X039600Y007838D01*
X039600Y007680D02*
X038946Y007680D01*
X038950Y007521D02*
X039600Y007521D01*
X039600Y007363D02*
X038950Y007363D01*
X038390Y007380D02*
X038390Y006880D01*
X037330Y006880D01*
X037180Y006730D01*
X035970Y006880D02*
X035430Y006880D01*
X035130Y006580D01*
X035130Y004230D01*
X034730Y003830D01*
X033280Y003830D01*
X032269Y004034D02*
X031550Y004034D01*
X031550Y003876D02*
X032234Y003876D01*
X032234Y003717D02*
X031550Y003717D01*
X031550Y003559D02*
X032297Y003559D01*
X032414Y003400D02*
X031550Y003400D01*
X031550Y003242D02*
X032682Y003242D01*
X031550Y003083D02*
X035390Y003083D01*
X035390Y002925D02*
X031550Y002925D01*
X031550Y002766D02*
X035390Y002766D01*
X035390Y002608D02*
X031550Y002608D01*
X031550Y002449D02*
X035260Y002449D01*
X035630Y002480D02*
X035630Y006040D01*
X035970Y006380D01*
X035410Y006412D02*
X035370Y006412D01*
X035370Y006253D02*
X035410Y006253D01*
X035393Y006095D02*
X035370Y006095D01*
X035370Y005936D02*
X035390Y005936D01*
X034830Y006080D02*
X034830Y007130D01*
X035080Y007380D01*
X035970Y007380D01*
X036030Y007380D01*
X035403Y007680D02*
X034329Y007680D01*
X034330Y007684D02*
X034343Y007762D01*
X033348Y007762D01*
X033348Y007207D01*
X033772Y007207D01*
X033869Y007222D01*
X033962Y007253D01*
X034049Y007297D01*
X034129Y007355D01*
X034198Y007424D01*
X034256Y007504D01*
X034300Y007591D01*
X034330Y007684D01*
X034265Y007521D02*
X034882Y007521D01*
X034723Y007363D02*
X034136Y007363D01*
X034601Y007204D02*
X031550Y007204D01*
X031550Y007046D02*
X034590Y007046D01*
X034590Y006887D02*
X031550Y006887D01*
X031550Y006729D02*
X034590Y006729D01*
X034590Y006570D02*
X031550Y006570D01*
X031550Y006412D02*
X032665Y006412D01*
X032407Y006253D02*
X031550Y006253D01*
X031550Y006095D02*
X032294Y006095D01*
X032234Y005936D02*
X031550Y005936D01*
X031550Y005778D02*
X032234Y005778D01*
X032272Y005619D02*
X031550Y005619D01*
X031550Y005461D02*
X032354Y005461D01*
X032536Y005302D02*
X031550Y005302D01*
X031550Y005144D02*
X034890Y005144D01*
X035370Y005144D02*
X035390Y005144D01*
X035390Y005302D02*
X035370Y005302D01*
X034890Y005302D02*
X034024Y005302D01*
X034206Y005461D02*
X034890Y005461D01*
X034890Y005619D02*
X034698Y005619D01*
X035370Y005619D02*
X035390Y005619D01*
X035390Y005461D02*
X035370Y005461D01*
X035870Y005461D02*
X036221Y005461D01*
X036244Y005483D02*
X036244Y005483D01*
X036380Y005619D02*
X035870Y005619D01*
X035870Y005778D02*
X036490Y005778D01*
X036490Y005936D02*
X035870Y005936D01*
X036441Y006095D02*
X036490Y006095D01*
X035390Y005778D02*
X035370Y005778D01*
X034890Y005778D02*
X034867Y005778D01*
X034580Y005830D02*
X034830Y006080D01*
X034505Y006095D02*
X034266Y006095D01*
X034153Y006253D02*
X034590Y006253D01*
X034590Y006412D02*
X033895Y006412D01*
X033280Y005830D02*
X034580Y005830D01*
X035870Y005302D02*
X036140Y005302D01*
X036380Y005280D02*
X036380Y002930D01*
X036630Y002680D01*
X037230Y002680D01*
X037760Y002608D02*
X039600Y002608D01*
X039600Y002449D02*
X037708Y002449D01*
X037590Y002291D02*
X039600Y002291D01*
X039600Y002132D02*
X037761Y002132D01*
X037780Y001974D02*
X039600Y001974D01*
X039600Y001815D02*
X037780Y001815D01*
X037780Y001660D02*
X037250Y001660D01*
X037250Y001130D01*
X037624Y001130D01*
X037669Y001142D01*
X037711Y001166D01*
X037744Y001199D01*
X037768Y001241D01*
X037780Y001286D01*
X037780Y001660D01*
X037780Y001657D02*
X039600Y001657D01*
X039600Y001498D02*
X037780Y001498D01*
X037780Y001340D02*
X039600Y001340D01*
X039600Y001181D02*
X037726Y001181D01*
X037250Y001181D02*
X037210Y001181D01*
X037210Y001130D02*
X037210Y001660D01*
X036680Y001660D01*
X036680Y001286D01*
X036692Y001241D01*
X036716Y001199D01*
X036749Y001166D01*
X036791Y001142D01*
X036836Y001130D01*
X037210Y001130D01*
X036734Y001181D02*
X031550Y001181D01*
X031550Y001023D02*
X039600Y001023D01*
X039600Y000864D02*
X031550Y000864D01*
X030830Y000864D02*
X026765Y000864D01*
X026765Y001023D02*
X030830Y001023D01*
X030830Y001181D02*
X026765Y001181D01*
X026765Y001340D02*
X028320Y001340D01*
X028176Y001498D02*
X026765Y001498D01*
X026765Y001657D02*
X028106Y001657D01*
X029080Y001498D02*
X029216Y001498D01*
X029216Y001340D02*
X029080Y001340D01*
X029976Y001340D02*
X030830Y001340D01*
X030830Y001498D02*
X030120Y001498D01*
X030190Y001657D02*
X030830Y001657D01*
X031550Y001657D02*
X032256Y001657D01*
X032234Y001815D02*
X031550Y001815D01*
X031550Y001974D02*
X032244Y001974D01*
X032310Y002132D02*
X031550Y002132D01*
X031550Y002291D02*
X032445Y002291D01*
X034115Y002291D02*
X035101Y002291D01*
X035780Y002291D02*
X036870Y002291D01*
X036699Y002132D02*
X035621Y002132D01*
X035463Y001974D02*
X036680Y001974D01*
X036680Y001815D02*
X035304Y001815D01*
X034980Y001830D02*
X035630Y002480D01*
X035870Y002449D02*
X036561Y002449D01*
X036427Y002544D02*
X036427Y002544D01*
X036363Y002608D02*
X035870Y002608D01*
X035870Y002766D02*
X036205Y002766D01*
X036140Y002925D02*
X035870Y002925D01*
X035870Y003083D02*
X036140Y003083D01*
X036140Y003242D02*
X035870Y003242D01*
X035870Y003400D02*
X036140Y003400D01*
X036140Y003559D02*
X035870Y003559D01*
X035870Y003717D02*
X036140Y003717D01*
X036140Y003876D02*
X035870Y003876D01*
X035870Y004034D02*
X036140Y004034D01*
X036140Y004193D02*
X035870Y004193D01*
X035870Y004351D02*
X036140Y004351D01*
X036140Y004510D02*
X035870Y004510D01*
X035870Y004668D02*
X036140Y004668D01*
X036140Y004827D02*
X035870Y004827D01*
X035870Y004985D02*
X036140Y004985D01*
X036140Y005144D02*
X035870Y005144D01*
X035390Y004985D02*
X035370Y004985D01*
X035370Y004827D02*
X035390Y004827D01*
X034890Y004827D02*
X031550Y004827D01*
X031550Y004985D02*
X034890Y004985D01*
X034890Y004668D02*
X031550Y004668D01*
X031550Y004510D02*
X034890Y004510D01*
X034890Y004351D02*
X034041Y004351D01*
X034213Y004193D02*
X034753Y004193D01*
X035370Y004193D02*
X035390Y004193D01*
X035390Y004351D02*
X035370Y004351D01*
X035370Y004510D02*
X035390Y004510D01*
X035390Y004668D02*
X035370Y004668D01*
X037230Y004680D02*
X038130Y004680D01*
X038390Y004940D01*
X038390Y006380D01*
X038950Y006412D02*
X039600Y006412D01*
X039600Y006570D02*
X038950Y006570D01*
X038950Y006729D02*
X039600Y006729D01*
X039600Y006887D02*
X038950Y006887D01*
X038950Y007046D02*
X039600Y007046D01*
X039600Y007204D02*
X038950Y007204D01*
X036880Y007880D02*
X036730Y007730D01*
X036730Y005630D01*
X036380Y005280D01*
X038630Y005302D02*
X039600Y005302D01*
X039600Y005144D02*
X038630Y005144D01*
X038630Y004985D02*
X039600Y004985D01*
X039600Y004827D02*
X038603Y004827D01*
X038457Y004668D02*
X039600Y004668D01*
X039600Y004510D02*
X038299Y004510D01*
X037651Y004351D02*
X039600Y004351D01*
X039600Y004193D02*
X037438Y004193D01*
X037626Y004034D02*
X039600Y004034D01*
X039600Y003876D02*
X037723Y003876D01*
X037760Y003717D02*
X039600Y003717D01*
X039600Y003559D02*
X037753Y003559D01*
X037688Y003400D02*
X039600Y003400D01*
X039600Y003242D02*
X037541Y003242D01*
X037577Y003083D02*
X039600Y003083D01*
X039600Y002925D02*
X037702Y002925D01*
X037760Y002766D02*
X039600Y002766D01*
X035390Y003242D02*
X033878Y003242D01*
X034146Y003400D02*
X035390Y003400D01*
X035390Y003559D02*
X034263Y003559D01*
X034956Y003717D02*
X035390Y003717D01*
X035390Y003876D02*
X035115Y003876D01*
X035273Y004034D02*
X035390Y004034D01*
X032519Y004351D02*
X031550Y004351D01*
X031550Y004193D02*
X032347Y004193D01*
X038630Y005461D02*
X039600Y005461D01*
X039600Y005619D02*
X038630Y005619D01*
X038630Y005778D02*
X039600Y005778D01*
X039600Y005936D02*
X038630Y005936D01*
X038861Y006095D02*
X039600Y006095D01*
X039600Y006253D02*
X038950Y006253D01*
X033348Y007363D02*
X033212Y007363D01*
X033212Y007521D02*
X033348Y007521D01*
X033348Y007680D02*
X033212Y007680D01*
X032295Y007521D02*
X031550Y007521D01*
X031550Y007363D02*
X032424Y007363D01*
X033212Y007997D02*
X033348Y007997D01*
X033348Y008155D02*
X033212Y008155D01*
X033212Y008314D02*
X033348Y008314D01*
X034117Y008314D02*
X039600Y008314D01*
X038390Y007880D02*
X036880Y007880D01*
X036657Y007997D02*
X036550Y007997D01*
X035970Y007997D02*
X035970Y007997D01*
X028336Y008314D02*
X026474Y008314D01*
X025054Y008314D02*
X023638Y008314D01*
X024548Y008155D02*
X025054Y008155D01*
X025054Y007997D02*
X024773Y007997D01*
X024871Y007838D02*
X025054Y007838D01*
X025054Y007680D02*
X024983Y007680D01*
X025040Y007521D02*
X025067Y007521D01*
X010574Y007997D02*
X010243Y007997D01*
X010553Y007838D02*
X008688Y007838D01*
X007802Y008472D02*
X010083Y008472D01*
X003900Y008472D02*
X003860Y008472D01*
X003860Y008631D02*
X003900Y008631D01*
X003503Y008631D02*
X002378Y008631D01*
X002493Y008472D02*
X003386Y008472D01*
X003336Y008314D02*
X002584Y008314D01*
X002626Y008155D02*
X003335Y008155D01*
X003382Y007997D02*
X002660Y007997D01*
X002660Y007838D02*
X003494Y007838D01*
X003563Y007680D02*
X002646Y007680D01*
X002604Y007521D02*
X003412Y007521D01*
X003345Y007363D02*
X002536Y007363D01*
X002445Y007204D02*
X003330Y007204D01*
X003362Y007046D02*
X002294Y007046D01*
X002070Y006887D02*
X003449Y006887D01*
X003647Y006729D02*
X000660Y006729D01*
X000660Y006887D02*
X000990Y006887D01*
X000766Y007046D02*
X000660Y007046D01*
X000660Y006570D02*
X003447Y006570D01*
X003361Y006412D02*
X000660Y006412D01*
X003860Y008314D02*
X003900Y008314D01*
X025442Y003242D02*
X025602Y003242D01*
X025602Y003083D02*
X025442Y003083D01*
X025442Y002925D02*
X025602Y002925D01*
X025602Y002766D02*
X025442Y002766D01*
X025442Y002608D02*
X025602Y002608D01*
X025602Y002449D02*
X025442Y002449D01*
X025442Y002291D02*
X025602Y002291D01*
X025602Y002132D02*
X025442Y002132D01*
X024279Y001498D02*
X023209Y001498D01*
X023209Y001427D02*
X023742Y001427D01*
X023742Y000971D01*
X023730Y000925D01*
X023706Y000884D01*
X023673Y000851D01*
X023632Y000827D01*
X023586Y000815D01*
X023209Y000815D01*
X023209Y001427D01*
X023209Y001340D02*
X023049Y001340D01*
X023742Y001340D02*
X024279Y001340D01*
X024279Y001181D02*
X023742Y001181D01*
X023209Y001181D02*
X023049Y001181D01*
X023049Y001023D02*
X023209Y001023D01*
X023209Y000864D02*
X023049Y000864D01*
X023686Y000864D02*
X024279Y000864D01*
X024279Y001023D02*
X023742Y001023D01*
X021142Y001815D02*
X021102Y001815D01*
X021102Y001974D02*
X021142Y001974D01*
X031550Y001498D02*
X032322Y001498D01*
X032475Y001340D02*
X031550Y001340D01*
X033280Y001830D02*
X034980Y001830D01*
X035146Y001657D02*
X036680Y001657D01*
X037210Y001657D02*
X037250Y001657D01*
X037250Y001498D02*
X037210Y001498D01*
X037210Y001340D02*
X037250Y001340D01*
X036680Y001340D02*
X034085Y001340D01*
X034238Y001498D02*
X036680Y001498D01*
X034943Y002132D02*
X034250Y002132D01*
X000848Y002449D02*
X000660Y002449D01*
D34*
X007980Y002230D03*
X008880Y001730D03*
X007980Y001230D03*
X008530Y001080D03*
X011980Y001500D03*
X013030Y001830D03*
X015860Y001840D03*
X017890Y002800D03*
X018170Y003470D03*
X016180Y003830D03*
X014930Y004030D03*
X014380Y004080D03*
X013280Y004680D03*
X011070Y004930D03*
X009480Y005130D03*
X009010Y005400D03*
X008970Y005940D03*
X009430Y006180D03*
X007930Y006230D03*
X008030Y007230D03*
X009390Y007800D03*
X008330Y007830D03*
X008480Y008630D03*
X011680Y007130D03*
X012780Y006830D03*
X015230Y005630D03*
X016090Y005280D03*
X014580Y005180D03*
X013680Y005480D03*
X011070Y004270D03*
X008030Y004240D03*
X007930Y003730D03*
X008130Y003230D03*
X011460Y002750D03*
X013030Y003180D03*
X020610Y003080D03*
X020620Y002510D03*
X024880Y002730D03*
X026180Y002730D03*
X026180Y001830D03*
X024880Y001830D03*
X022010Y001010D03*
X020920Y004050D03*
X021620Y005270D03*
X024690Y005590D03*
X037180Y006730D03*
D35*
X016770Y008273D02*
X016713Y008330D01*
X016680Y008330D01*
X016780Y008430D01*
X016780Y008530D01*
X016580Y008730D01*
X013780Y008730D01*
X013680Y008630D01*
X013680Y008180D01*
X011680Y007626D02*
X011680Y007130D01*
X008600Y007610D02*
X008330Y007830D01*
X008600Y007610D02*
X008600Y005010D01*
X008863Y004747D01*
X009922Y004747D01*
X009920Y004487D02*
X008773Y004487D01*
X008330Y004930D01*
X008330Y006980D01*
X008030Y007230D01*
X007930Y006230D02*
X007930Y004880D01*
X008583Y004227D01*
X009922Y004227D01*
X009922Y003967D02*
X008293Y003967D01*
X008030Y004240D01*
X007930Y003730D02*
X007953Y003707D01*
X009922Y003707D01*
X009922Y003447D02*
X008347Y003447D01*
X008130Y003230D01*
X008480Y003030D02*
X008637Y003187D01*
X009922Y003187D01*
X009922Y002927D02*
X008777Y002927D01*
X008730Y002880D01*
X008730Y002180D01*
X008030Y001480D01*
X008030Y001280D01*
X007980Y001230D01*
X007980Y002230D02*
X008330Y002230D01*
X008480Y002380D01*
X008480Y003030D01*
X015850Y004628D02*
X015850Y004628D01*
X015850Y005120D01*
X016010Y005280D01*
X016090Y005280D01*
X003880Y008230D02*
X003880Y008630D01*
X004050Y008760D01*
X006250Y008760D01*
X006380Y008730D01*
D36*
X023006Y007744D02*
X023170Y007760D01*
X024430Y007760D01*
X024630Y007460D01*
X024630Y006730D01*
X024921Y006439D01*
X025764Y006439D01*
X026420Y005784D01*
X026420Y004809D01*
X030600Y004990D02*
X030660Y005050D01*
X031630Y005050D01*
X031890Y005310D01*
X031890Y007560D01*
X032150Y007820D01*
X033310Y007820D01*
X033330Y007840D01*
X033330Y007850D01*
X033340Y007860D01*
X033320Y007860D01*
X033290Y007890D01*
X033300Y007850D02*
X033280Y007830D01*
X033250Y007830D01*
X033210Y007790D01*
X033170Y007790D01*
X033210Y007830D01*
X033250Y007830D01*
X029148Y007830D02*
X026030Y007830D01*
X025780Y008080D01*
X025830Y008080D01*
X025780Y008080D02*
X025730Y008080D01*
X025759Y008051D01*
X025764Y008051D01*
X030600Y004990D02*
X030600Y002250D01*
X030180Y001830D01*
X029148Y001830D01*
D37*
X021635Y003057D02*
X021167Y003057D01*
X020990Y002880D01*
X020990Y002600D01*
X020900Y002510D01*
X020620Y002510D01*
X020140Y002390D02*
X020140Y001630D01*
X020132Y001622D01*
X020122Y001622D01*
X020130Y001614D01*
X020130Y000930D01*
X019960Y000760D01*
X016250Y000760D01*
X016165Y000845D01*
X016165Y001248D01*
X015860Y001270D02*
X015850Y001260D01*
X015850Y001248D01*
X015860Y001270D02*
X015860Y001840D01*
X016370Y002170D02*
X016710Y001830D01*
X017030Y001830D01*
X017036Y001836D01*
X017068Y001836D01*
X017080Y001830D02*
X017030Y001830D01*
X018122Y001622D02*
X018160Y001660D01*
X018160Y002010D01*
X018430Y002280D01*
X018430Y003090D01*
X018560Y003220D01*
X018560Y003920D01*
X018690Y004050D01*
X019140Y004050D01*
X019147Y004057D01*
X019215Y004057D01*
X019180Y004050D02*
X019140Y004050D01*
X019215Y003557D02*
X019215Y003057D01*
X019212Y003060D01*
X018740Y003060D01*
X018640Y002960D01*
X018640Y002370D01*
X018760Y002250D01*
X019000Y002250D01*
X019122Y002128D01*
X019122Y001622D01*
X019120Y001620D01*
X019120Y001120D01*
X019000Y000960D01*
X016910Y000960D01*
X016692Y001248D01*
X016480Y001248D01*
X014620Y002170D02*
X013880Y001430D01*
X012730Y001430D01*
X012580Y001580D01*
X012580Y005480D01*
X012530Y005530D01*
X012280Y005530D01*
X012277Y005527D01*
X012222Y005527D01*
X012780Y005780D02*
X012880Y005680D01*
X012880Y003880D01*
X013030Y003730D01*
X013683Y003730D01*
X013688Y003725D01*
X014235Y003725D01*
X014530Y003430D01*
X016580Y003430D01*
X016580Y002880D01*
X016679Y002781D01*
X017068Y002781D01*
X019215Y002557D02*
X019973Y002557D01*
X020140Y002390D01*
X020610Y003080D02*
X020720Y003190D01*
X020720Y003300D01*
X020977Y003557D01*
X021635Y003557D01*
X021610Y004050D02*
X021620Y004060D01*
X021632Y004060D01*
X021635Y004057D01*
X018170Y003470D02*
X018110Y003410D01*
X017068Y003410D01*
X017048Y003430D01*
X016580Y003430D01*
X014930Y004030D02*
X014930Y004604D01*
X014906Y004628D01*
X015221Y004628D02*
X015230Y004637D01*
X015230Y005630D01*
X014830Y005630D02*
X014830Y006580D01*
X015130Y006880D01*
X015130Y007780D01*
X014751Y008159D01*
X014638Y008159D01*
X016504Y007159D02*
X016770Y007525D01*
X016504Y007159D02*
X015638Y007159D01*
X014638Y007159D02*
X014638Y005738D01*
X014330Y005480D01*
X013680Y005480D01*
X013680Y004048D01*
X013688Y004040D01*
X014280Y004230D02*
X014280Y004630D01*
X014278Y004630D01*
X014276Y004628D01*
X014580Y004639D02*
X014591Y004628D01*
X014580Y004639D02*
X014580Y005180D01*
X014580Y005380D01*
X014830Y005630D01*
X012780Y005780D02*
X012580Y005780D01*
X012229Y005780D01*
X012222Y005787D01*
X012580Y005780D02*
X012630Y005830D01*
X012630Y006180D01*
X012503Y006307D01*
X012222Y006307D01*
X011960Y006050D02*
X011780Y006230D01*
X010980Y006230D01*
X010830Y006380D01*
X010830Y006830D01*
X010630Y007030D01*
X009984Y007030D01*
X009430Y006180D02*
X009563Y006047D01*
X009922Y006047D01*
X009123Y005787D02*
X008970Y005940D01*
X009123Y005787D02*
X009922Y005787D01*
X009922Y005527D02*
X009277Y005527D01*
X009010Y005400D01*
X009480Y005130D02*
X009617Y005267D01*
X009922Y005267D01*
X013230Y004730D02*
X013280Y004680D01*
X013230Y004730D02*
X013230Y006180D01*
X013330Y006280D01*
X013430Y006280D01*
X013638Y006488D01*
X013638Y007159D01*
X012220Y006050D02*
X011960Y006050D01*
X012220Y006050D02*
X012220Y006049D01*
X012222Y006047D01*
X014280Y004230D02*
X014380Y004130D01*
X014380Y004080D01*
X014620Y002170D02*
X016370Y002170D01*
M02*
