%
M48
M72
T01C0.0236
T02C0.0354
T03C0.0400
T04C0.0591
T05C0.1300
%
T01
X7980Y1230
X8530Y1080
X8880Y1730
X7980Y2230
X11460Y2750
X13030Y3180
X16180Y3830
X14930Y4030
X14380Y4080
X13280Y4680
X11070Y4930
X9480Y5130
X9010Y5400
X8970Y5940
X9430Y6180
X7930Y6230
X8030Y7230
X9390Y7800
X8330Y7830
X8480Y8630
X11680Y7130
X12780Y6830
X15230Y5630
X16090Y5280
X14580Y5180
X13680Y5480
X11070Y4270
X8030Y4240
X7930Y3730
X8130Y3230
X13030Y1830
X11980Y1500
X15860Y1840
X17890Y2800
X18170Y3470
X20610Y3080
X20620Y2510
X24880Y2730
X26180Y2730
X26180Y1830
X24880Y1830
X22010Y1010
X20920Y4050
X21620Y5270
X24690Y5590
X37180Y6730
T02
X15638Y7159
X14638Y7159
X13638Y7159
X13638Y8159
X14638Y8159
X15638Y8159
T03
X3880Y1230
X4880Y1230
X5880Y1230
X5880Y2230
X4880Y2230
X3880Y2230
X3880Y3230
X4880Y3230
X5880Y3230
X5880Y4230
X4880Y4230
X3880Y4230
X3880Y5230
X4880Y5230
X5880Y5230
X5880Y6230
X4880Y6230
X3880Y6230
X3880Y7230
X4880Y7230
X5880Y7230
X5880Y8230
X4880Y8230
X3880Y8230
X19430Y7830
X20530Y7830
X37230Y4680
X37230Y3680
X37230Y2680
X37230Y1680
X21122Y1622
X20122Y1622
X19122Y1622
X18122Y1622
T04
X29148Y1830
X33280Y1830
X33280Y3830
X29148Y3830
X29148Y5830
X33280Y5830
X33280Y7830
X29148Y7830
T05
X19990Y5720
X1530Y7880
X1430Y1480
M30
