G75*
G70*
%OFA0B0*%
%FSLAX24Y24*%
%IPPOS*%
%LPD*%
%AMOC8*
5,1,8,0,0,1.08239X$1,22.5*
%
%ADD10C,0.0720*%
%ADD11R,0.0820X0.0820*%
%ADD12C,0.0820*%
%ADD13C,0.0966*%
%ADD14C,0.1380*%
%ADD15C,0.0680*%
%ADD16R,0.0297X0.0552*%
%ADD17C,0.0476*%
D10*
X013638Y007159D03*
X014638Y007159D03*
X015638Y007159D03*
X015638Y008159D03*
X014638Y008159D03*
X013638Y008159D03*
D11*
X021122Y001622D03*
X037230Y001680D03*
D12*
X003880Y001230D03*
X004880Y001230D03*
X005880Y001230D03*
X005880Y002230D03*
X004880Y002230D03*
X003880Y002230D03*
X003880Y003230D03*
X004880Y003230D03*
X005880Y003230D03*
X005880Y004230D03*
X004880Y004230D03*
X003880Y004230D03*
X003880Y005230D03*
X004880Y005230D03*
X005880Y005230D03*
X005880Y006230D03*
X004880Y006230D03*
X003880Y006230D03*
X003880Y007230D03*
X004880Y007230D03*
X005880Y007230D03*
X005880Y008230D03*
X004880Y008230D03*
X003880Y008230D03*
X018122Y001622D03*
X019122Y001622D03*
X020122Y001622D03*
X037230Y002680D03*
X037230Y003680D03*
X037230Y004680D03*
D13*
X033723Y003830D02*
X032837Y003830D01*
X029591Y003830D02*
X028705Y003830D01*
X028705Y001830D02*
X029591Y001830D01*
X032837Y001830D02*
X033723Y001830D01*
X033723Y005830D02*
X032837Y005830D01*
X029591Y005830D02*
X028705Y005830D01*
X028705Y007830D02*
X029591Y007830D01*
X032837Y007830D02*
X033723Y007830D01*
D14*
X019990Y005720D03*
X001530Y007880D03*
X001430Y001480D03*
D15*
X019430Y007530D02*
X019430Y008130D01*
X020530Y008130D02*
X020530Y007530D01*
D16*
X018004Y006302D03*
X017630Y006302D03*
X017256Y006302D03*
X017256Y005278D03*
X018004Y005278D03*
D17*
X016090Y005280D03*
X015230Y005630D03*
X014580Y005180D03*
X013680Y005480D03*
X011070Y004930D03*
X009480Y005130D03*
X009010Y005400D03*
X008970Y005940D03*
X009430Y006180D03*
X007930Y006230D03*
X008030Y007230D03*
X009390Y007800D03*
X008330Y007830D03*
X008480Y008630D03*
X011680Y007130D03*
X012780Y006830D03*
X016090Y006420D03*
X021620Y005270D03*
X024690Y005590D03*
X020920Y004050D03*
X018170Y003470D03*
X016180Y003830D03*
X014930Y004030D03*
X014380Y004080D03*
X013280Y004680D03*
X011070Y004270D03*
X008030Y004240D03*
X007930Y003730D03*
X008130Y003230D03*
X011460Y002750D03*
X013030Y003180D03*
X017890Y002800D03*
X020610Y003080D03*
X020620Y002510D03*
X024880Y002730D03*
X026180Y002730D03*
X026180Y001830D03*
X024880Y001830D03*
X022010Y001010D03*
X015860Y001840D03*
X013030Y001830D03*
X011980Y001500D03*
X008880Y001730D03*
X007980Y001230D03*
X008530Y001080D03*
X007980Y002230D03*
X037180Y006730D03*
M02*
