%
M48
M72
T01C0.0236
T02C0.0400
T03C0.1300
%
T01
X1760Y3230
X3780Y3500
X5660Y4550
X6620Y3560
X8540Y3410
X10680Y4380
X10380Y6470
X11230Y6980
X12010Y7240
X10290Y7420
X10230Y8970
X7680Y7320
X6990Y6390
X7590Y5980
X4190Y5250
X3290Y8080
X7630Y9700
T02
X3180Y7200
X2180Y7200
X1180Y7200
X1180Y6200
X2180Y6200
X3180Y6200
X3180Y5200
X2180Y5200
X1180Y5200
X1180Y4200
X2180Y4200
X3180Y4200
T03
X11680Y5700
M30
