G75*
G70*
%OFA0B0*%
%FSLAX24Y24*%
%IPPOS*%
%LPD*%
%AMOC8*
5,1,8,0,0,1.08239X$1,22.5*
%
%ADD10C,0.0000*%
%ADD11R,0.0276X0.0138*%
%ADD12R,0.0138X0.0276*%
%ADD13R,0.0787X0.0787*%
%ADD14R,0.0591X0.0157*%
%ADD15R,0.0315X0.0098*%
%ADD16R,0.0098X0.0315*%
%ADD17R,0.0472X0.0472*%
%ADD18R,0.0740X0.0740*%
%ADD19OC8,0.0740*%
%ADD20C,0.0740*%
%ADD21R,0.0315X0.0150*%
%ADD22R,0.0150X0.0315*%
%ADD23R,0.0512X0.0591*%
%ADD24R,0.0591X0.0512*%
%ADD25R,0.0551X0.0433*%
%ADD26R,0.0630X0.0709*%
%ADD27C,0.0160*%
%ADD28C,0.0396*%
%ADD29C,0.0100*%
D10*
X000180Y000200D02*
X012992Y000200D01*
X012992Y010560D01*
X000180Y010560D01*
X011030Y005700D02*
X011032Y005750D01*
X011038Y005800D01*
X011048Y005850D01*
X011061Y005898D01*
X011078Y005946D01*
X011099Y005992D01*
X011123Y006036D01*
X011151Y006078D01*
X011182Y006118D01*
X011216Y006155D01*
X011253Y006190D01*
X011292Y006221D01*
X011333Y006250D01*
X011377Y006275D01*
X011423Y006297D01*
X011470Y006315D01*
X011518Y006329D01*
X011567Y006340D01*
X011617Y006347D01*
X011667Y006350D01*
X011718Y006349D01*
X011768Y006344D01*
X011818Y006335D01*
X011866Y006323D01*
X011914Y006306D01*
X011960Y006286D01*
X012005Y006263D01*
X012048Y006236D01*
X012088Y006206D01*
X012126Y006173D01*
X012161Y006137D01*
X012194Y006098D01*
X012223Y006057D01*
X012249Y006014D01*
X012272Y005969D01*
X012291Y005922D01*
X012306Y005874D01*
X012318Y005825D01*
X012326Y005775D01*
X012330Y005725D01*
X012330Y005675D01*
X012326Y005625D01*
X012318Y005575D01*
X012306Y005526D01*
X012291Y005478D01*
X012272Y005431D01*
X012249Y005386D01*
X012223Y005343D01*
X012194Y005302D01*
X012161Y005263D01*
X012126Y005227D01*
X012088Y005194D01*
X012048Y005164D01*
X012005Y005137D01*
X011960Y005114D01*
X011914Y005094D01*
X011866Y005077D01*
X011818Y005065D01*
X011768Y005056D01*
X011718Y005051D01*
X011667Y005050D01*
X011617Y005053D01*
X011567Y005060D01*
X011518Y005071D01*
X011470Y005085D01*
X011423Y005103D01*
X011377Y005125D01*
X011333Y005150D01*
X011292Y005179D01*
X011253Y005210D01*
X011216Y005245D01*
X011182Y005282D01*
X011151Y005322D01*
X011123Y005364D01*
X011099Y005408D01*
X011078Y005454D01*
X011061Y005502D01*
X011048Y005550D01*
X011038Y005600D01*
X011032Y005650D01*
X011030Y005700D01*
D11*
X010751Y008056D03*
X010751Y008312D03*
X010751Y008568D03*
X010751Y008824D03*
X012189Y008824D03*
X012189Y008568D03*
X012189Y008312D03*
X012189Y008056D03*
D12*
X011854Y007721D03*
X011598Y007721D03*
X011342Y007721D03*
X011086Y007721D03*
X011086Y009168D03*
X011342Y009168D03*
X011608Y009168D03*
X011854Y009168D03*
D13*
X011470Y008440D03*
D14*
X007567Y004942D03*
X007567Y004686D03*
X007567Y004430D03*
X007567Y004174D03*
X007567Y003918D03*
X007567Y003662D03*
X007567Y003406D03*
X007567Y003150D03*
X007567Y002894D03*
X007567Y002638D03*
X004713Y002638D03*
X004713Y002894D03*
X004713Y003150D03*
X004713Y003406D03*
X004713Y003662D03*
X004713Y003918D03*
X004713Y004174D03*
X004713Y004430D03*
X004713Y004686D03*
X004713Y004942D03*
D15*
X009922Y002722D03*
X009922Y002525D03*
X009922Y002328D03*
X009922Y002132D03*
X009922Y001935D03*
X009922Y001738D03*
X011832Y001738D03*
X011832Y001935D03*
X011832Y002132D03*
X011832Y002328D03*
X011832Y002525D03*
X011832Y002722D03*
D16*
X011566Y002988D03*
X011369Y002988D03*
X011172Y002988D03*
X010975Y002988D03*
X010778Y002988D03*
X010582Y002988D03*
X010385Y002988D03*
X010188Y002988D03*
X010188Y001472D03*
X010385Y001472D03*
X010582Y001472D03*
X010778Y001472D03*
X010975Y001472D03*
X011172Y001472D03*
X011369Y001472D03*
X011566Y001472D03*
D17*
X010880Y002230D03*
D18*
X001180Y005200D03*
D19*
X002180Y005200D03*
X003180Y005200D03*
X003180Y006200D03*
X002180Y006200D03*
X001180Y006200D03*
D20*
X001180Y007200D03*
X002180Y007200D03*
X003180Y007200D03*
X003180Y004200D03*
X002180Y004200D03*
X001180Y004200D03*
D21*
X004638Y007209D03*
X004638Y007524D03*
X004638Y007839D03*
X004638Y008154D03*
X004638Y008469D03*
X004638Y008783D03*
X006922Y008783D03*
X006922Y008469D03*
X006922Y008154D03*
X006922Y007839D03*
X006922Y007524D03*
X006922Y007209D03*
D22*
X006567Y006854D03*
X006252Y006854D03*
X005937Y006854D03*
X005623Y006854D03*
X005308Y006854D03*
X004993Y006854D03*
X004993Y009138D03*
X005308Y009138D03*
X005623Y009138D03*
X005937Y009138D03*
X006252Y009138D03*
X006567Y009138D03*
D23*
X008845Y009190D03*
X009515Y009190D03*
X009535Y007970D03*
X008865Y007970D03*
X008865Y006780D03*
X009535Y006780D03*
X011345Y003870D03*
X012015Y003870D03*
X007545Y001710D03*
X006875Y001710D03*
X005905Y001710D03*
X005235Y001710D03*
D24*
X009190Y004195D03*
X010000Y004185D03*
X010000Y004855D03*
X009190Y004865D03*
D25*
X009230Y002674D03*
X008440Y002204D03*
X009230Y001886D03*
X008440Y001416D03*
D26*
X005851Y005870D03*
X004749Y005870D03*
D27*
X004749Y004978D01*
X004713Y004942D01*
X004509Y005180D02*
X004351Y005180D01*
X004258Y005087D01*
X004258Y004591D01*
X004253Y004584D01*
X004187Y004650D01*
X004040Y004797D01*
X004040Y005787D01*
X003917Y005910D01*
X003743Y005910D01*
X003668Y005910D01*
X003730Y005972D01*
X003730Y006180D01*
X003200Y006180D01*
X003200Y006220D01*
X003730Y006220D01*
X003730Y006428D01*
X003429Y006729D01*
X003480Y006751D01*
X003629Y006900D01*
X003654Y006960D01*
X003671Y006960D01*
X003850Y006781D01*
X003850Y006052D01*
X003887Y005964D01*
X004137Y005714D01*
X004204Y005647D01*
X004274Y005618D01*
X004274Y005449D01*
X004368Y005356D01*
X004509Y005356D01*
X004509Y005180D01*
X004509Y005272D02*
X004040Y005272D01*
X004040Y005114D02*
X004284Y005114D01*
X004258Y004955D02*
X004040Y004955D01*
X004040Y004797D02*
X004258Y004797D01*
X004258Y004638D02*
X004199Y004638D01*
X004989Y005180D02*
X004989Y005356D01*
X005130Y005356D01*
X005224Y005449D01*
X005224Y006260D01*
X005359Y006260D01*
X005356Y006248D01*
X005356Y005947D01*
X005774Y005947D01*
X005774Y005793D01*
X005356Y005793D01*
X005356Y005492D01*
X005368Y005446D01*
X005392Y005405D01*
X005426Y005372D01*
X005467Y005348D01*
X005513Y005336D01*
X005774Y005336D01*
X005774Y005793D01*
X005929Y005793D01*
X005929Y005947D01*
X006346Y005947D01*
X006346Y006248D01*
X006343Y006260D01*
X006656Y006260D01*
X006686Y006187D01*
X006787Y006086D01*
X006919Y006032D01*
X007061Y006032D01*
X007193Y006086D01*
X007294Y006187D01*
X007348Y006319D01*
X007348Y006461D01*
X007294Y006593D01*
X007193Y006694D01*
X007061Y006748D01*
X006919Y006748D01*
X006802Y006700D01*
X006802Y006974D01*
X007145Y006974D01*
X007239Y007068D01*
X007239Y007350D01*
X007223Y007366D01*
X007239Y007383D01*
X007239Y007665D01*
X007223Y007681D01*
X007239Y007698D01*
X007239Y007980D01*
X007223Y007996D01*
X007239Y008012D01*
X007239Y008295D01*
X007233Y008301D01*
X007247Y008324D01*
X007259Y008370D01*
X007259Y008468D01*
X006922Y008468D01*
X006922Y008469D01*
X007259Y008469D01*
X007259Y008567D01*
X007247Y008613D01*
X007233Y008636D01*
X007239Y008642D01*
X007239Y008925D01*
X007145Y009018D01*
X006802Y009018D01*
X006802Y009078D01*
X006807Y009090D01*
X006807Y009186D01*
X006802Y009198D01*
X006802Y009362D01*
X006800Y009364D01*
X006800Y009460D01*
X007364Y009460D01*
X007427Y009396D01*
X007559Y009342D01*
X007701Y009342D01*
X007833Y009396D01*
X007934Y009497D01*
X007988Y009629D01*
X007988Y009771D01*
X007934Y009903D01*
X007833Y010004D01*
X007701Y010058D01*
X007559Y010058D01*
X007427Y010004D01*
X007364Y009940D01*
X006676Y009940D01*
X006654Y009945D01*
X006628Y009940D01*
X006602Y009940D01*
X006582Y009932D01*
X006560Y009928D01*
X006538Y009913D01*
X006514Y009903D01*
X006498Y009888D01*
X006480Y009876D01*
X006465Y009854D01*
X006447Y009836D01*
X006438Y009816D01*
X006375Y009724D01*
X006357Y009706D01*
X006348Y009686D01*
X006336Y009667D01*
X006330Y009642D01*
X006320Y009618D01*
X006320Y009596D01*
X006315Y009574D01*
X006320Y009548D01*
X006320Y009455D01*
X006111Y009455D01*
X006095Y009439D01*
X006079Y009455D01*
X005860Y009455D01*
X005860Y009468D01*
X005823Y009556D01*
X005756Y009623D01*
X005576Y009803D01*
X005488Y009840D01*
X001532Y009840D01*
X001444Y009803D01*
X001377Y009736D01*
X001021Y009380D01*
X000987Y009347D01*
X000987Y009346D01*
X000987Y009346D01*
X000969Y009302D01*
X000950Y009259D01*
X000950Y009258D01*
X000950Y009211D01*
X000942Y007675D01*
X000880Y007649D01*
X000731Y007500D01*
X000650Y007305D01*
X000650Y007095D01*
X000731Y006900D01*
X000880Y006751D01*
X000951Y006721D01*
X000650Y006420D01*
X000650Y005980D01*
X000900Y005730D01*
X000744Y005730D01*
X000650Y005636D01*
X000650Y004764D01*
X000744Y004670D01*
X000930Y004670D01*
X000880Y004649D01*
X000731Y004500D01*
X000650Y004305D01*
X000650Y004095D01*
X000731Y003900D01*
X000880Y003751D01*
X001075Y003670D01*
X001285Y003670D01*
X001480Y003751D01*
X001629Y003900D01*
X001680Y004022D01*
X001731Y003900D01*
X001880Y003751D01*
X001980Y003709D01*
X001980Y003516D01*
X001963Y003534D01*
X001831Y003588D01*
X001689Y003588D01*
X001557Y003534D01*
X001456Y003433D01*
X001402Y003301D01*
X001402Y003159D01*
X001456Y003027D01*
X001557Y002926D01*
X001689Y002872D01*
X001821Y002872D01*
X002009Y002684D01*
X004258Y002684D01*
X004258Y002493D01*
X004351Y002400D01*
X005074Y002400D01*
X005103Y002428D01*
X005315Y002428D01*
X005397Y002510D01*
X005520Y002633D01*
X005520Y004220D01*
X005589Y004192D01*
X005731Y004192D01*
X005863Y004246D01*
X005964Y004347D01*
X006018Y004479D01*
X006018Y004621D01*
X005972Y004732D01*
X007092Y004732D01*
X007092Y004686D01*
X007567Y004686D01*
X007567Y004686D01*
X007092Y004686D01*
X007092Y004583D01*
X007104Y004537D01*
X007112Y004524D01*
X007112Y003104D01*
X006087Y003104D01*
X005843Y002860D01*
X005720Y002737D01*
X005720Y002165D01*
X005582Y002165D01*
X005579Y002162D01*
X005561Y002173D01*
X005515Y002185D01*
X005283Y002185D01*
X005283Y001758D01*
X005187Y001758D01*
X005187Y001662D01*
X004799Y001662D01*
X004799Y001391D01*
X004812Y001345D01*
X004835Y001304D01*
X004869Y001271D01*
X004910Y001247D01*
X004956Y001235D01*
X005187Y001235D01*
X005187Y001662D01*
X005283Y001662D01*
X005283Y001235D01*
X005515Y001235D01*
X005561Y001247D01*
X005579Y001258D01*
X005582Y001255D01*
X006227Y001255D01*
X006321Y001348D01*
X006321Y002072D01*
X006227Y002165D01*
X006140Y002165D01*
X006140Y002563D01*
X006261Y002684D01*
X007112Y002684D01*
X007112Y002493D01*
X007206Y002400D01*
X007335Y002400D01*
X007335Y002165D01*
X007222Y002165D01*
X007219Y002162D01*
X007201Y002173D01*
X007155Y002185D01*
X006923Y002185D01*
X006923Y001758D01*
X006827Y001758D01*
X006827Y001662D01*
X006439Y001662D01*
X006439Y001391D01*
X006452Y001345D01*
X006475Y001304D01*
X006509Y001271D01*
X006550Y001247D01*
X006596Y001235D01*
X006827Y001235D01*
X006827Y001662D01*
X006923Y001662D01*
X006923Y001235D01*
X007155Y001235D01*
X007201Y001247D01*
X007219Y001258D01*
X007222Y001255D01*
X007867Y001255D01*
X007961Y001348D01*
X007961Y002072D01*
X007867Y002165D01*
X007755Y002165D01*
X007755Y002400D01*
X007929Y002400D01*
X007957Y002428D01*
X008004Y002428D01*
X008004Y001921D01*
X008098Y001827D01*
X008782Y001827D01*
X008794Y001840D01*
X008794Y001780D01*
X008782Y001793D01*
X008098Y001793D01*
X008004Y001699D01*
X008004Y001133D01*
X008098Y001040D01*
X008782Y001040D01*
X008838Y001095D01*
X008920Y001013D01*
X009043Y000890D01*
X012187Y000890D01*
X012337Y001040D01*
X012460Y001163D01*
X012460Y001817D01*
X012337Y001940D01*
X012169Y001940D01*
X012169Y002008D01*
X012157Y002053D01*
X012149Y002067D01*
X012149Y002520D01*
X012227Y002520D01*
X012350Y002643D01*
X012350Y003113D01*
X012365Y003170D01*
X012350Y003197D01*
X012350Y003227D01*
X012308Y003269D01*
X012225Y003412D01*
X012225Y003415D01*
X012337Y003415D01*
X012431Y003508D01*
X012431Y004232D01*
X012337Y004325D01*
X011692Y004325D01*
X011689Y004322D01*
X011671Y004333D01*
X011625Y004345D01*
X011393Y004345D01*
X011393Y003918D01*
X011297Y003918D01*
X011297Y003822D01*
X010909Y003822D01*
X010909Y003570D01*
X010877Y003570D01*
X010860Y003587D01*
X010860Y003857D01*
X010730Y003987D01*
X010730Y004022D01*
X010751Y004022D01*
X010883Y004076D01*
X010909Y004103D01*
X010909Y003918D01*
X011297Y003918D01*
X011297Y004345D01*
X011066Y004345D01*
X011038Y004338D01*
X011038Y004451D01*
X010984Y004583D01*
X010883Y004684D01*
X010751Y004738D01*
X010609Y004738D01*
X010477Y004684D01*
X010475Y004682D01*
X010475Y004807D01*
X010048Y004807D01*
X010048Y004903D01*
X009952Y004903D01*
X009952Y005291D01*
X009681Y005291D01*
X009635Y005278D01*
X009602Y005259D01*
X009596Y005265D01*
X009555Y005288D01*
X009509Y005301D01*
X009238Y005301D01*
X009238Y004913D01*
X009142Y004913D01*
X009142Y005301D01*
X008871Y005301D01*
X008870Y005300D01*
X008870Y005940D01*
X009547Y005940D01*
X009670Y006063D01*
X009745Y006138D01*
X009745Y006325D01*
X009857Y006325D01*
X009951Y006418D01*
X009951Y006680D01*
X010677Y006680D01*
X010800Y006803D01*
X010882Y006885D01*
X010926Y006777D01*
X011027Y006676D01*
X011076Y006656D01*
X010986Y006604D01*
X010776Y006394D01*
X010627Y006136D01*
X010550Y005849D01*
X010550Y005551D01*
X010627Y005264D01*
X010776Y005006D01*
X010986Y004796D01*
X011244Y004647D01*
X011531Y004570D01*
X011829Y004570D01*
X012116Y004647D01*
X012374Y004796D01*
X012512Y004934D01*
X012512Y000680D01*
X000180Y000680D01*
X000180Y010080D01*
X012512Y010080D01*
X012512Y008522D01*
X012506Y008522D01*
X012506Y008568D01*
X012506Y008661D01*
X012494Y008706D01*
X012486Y008720D01*
X012486Y008959D01*
X012393Y009053D01*
X012103Y009053D01*
X012103Y009168D01*
X011854Y009168D01*
X011854Y009168D01*
X012103Y009168D01*
X012103Y009330D01*
X012090Y009376D01*
X012067Y009417D01*
X012033Y009450D01*
X011992Y009474D01*
X011946Y009486D01*
X011854Y009486D01*
X011854Y009340D01*
X011854Y009340D01*
X011854Y009486D01*
X011761Y009486D01*
X011731Y009478D01*
X011700Y009486D01*
X011608Y009486D01*
X011608Y009340D01*
X011608Y009486D01*
X011515Y009486D01*
X011475Y009475D01*
X011435Y009486D01*
X011342Y009486D01*
X011249Y009486D01*
X011204Y009474D01*
X011197Y009470D01*
X011167Y009500D01*
X011167Y009500D01*
X011077Y009590D01*
X009892Y009590D01*
X009837Y009645D01*
X009192Y009645D01*
X009189Y009642D01*
X009171Y009653D01*
X009125Y009665D01*
X008893Y009665D01*
X008893Y009238D01*
X008797Y009238D01*
X008797Y009142D01*
X008409Y009142D01*
X008409Y008880D01*
X008384Y008880D01*
X008381Y008882D01*
X008297Y008880D01*
X008213Y008880D01*
X008211Y008878D01*
X008207Y008878D01*
X008149Y008816D01*
X008090Y008757D01*
X008090Y008754D01*
X007969Y008626D01*
X007910Y008567D01*
X007910Y008564D01*
X007908Y008561D01*
X007910Y008477D01*
X007910Y005180D01*
X007206Y005180D01*
X007177Y005152D01*
X005425Y005152D01*
X005173Y004900D01*
X005168Y004900D01*
X005168Y005087D01*
X005074Y005180D01*
X004989Y005180D01*
X004989Y005272D02*
X007910Y005272D01*
X007910Y005431D02*
X006325Y005431D01*
X006334Y005446D02*
X006346Y005492D01*
X006346Y005793D01*
X005929Y005793D01*
X005929Y005336D01*
X006190Y005336D01*
X006236Y005348D01*
X006277Y005372D01*
X006310Y005405D01*
X006334Y005446D01*
X006346Y005589D02*
X007910Y005589D01*
X007910Y005748D02*
X006346Y005748D01*
X006346Y006065D02*
X006840Y006065D01*
X006672Y006223D02*
X006346Y006223D01*
X005929Y005906D02*
X007910Y005906D01*
X007910Y006065D02*
X007140Y006065D01*
X007308Y006223D02*
X007910Y006223D01*
X007910Y006382D02*
X007348Y006382D01*
X007315Y006540D02*
X007910Y006540D01*
X007910Y006699D02*
X007181Y006699D01*
X007187Y007016D02*
X007910Y007016D01*
X007910Y007174D02*
X007239Y007174D01*
X007239Y007333D02*
X007910Y007333D01*
X007910Y007491D02*
X007239Y007491D01*
X007239Y007650D02*
X007910Y007650D01*
X007910Y007808D02*
X007239Y007808D01*
X007239Y007967D02*
X007910Y007967D01*
X007910Y008125D02*
X007239Y008125D01*
X007239Y008284D02*
X007910Y008284D01*
X007910Y008442D02*
X007259Y008442D01*
X007250Y008601D02*
X007944Y008601D01*
X008092Y008759D02*
X007239Y008759D01*
X007239Y008918D02*
X008409Y008918D01*
X008409Y009076D02*
X006802Y009076D01*
X006802Y009235D02*
X008797Y009235D01*
X008797Y009238D02*
X008409Y009238D01*
X008409Y009509D01*
X008422Y009555D01*
X008445Y009596D01*
X008479Y009629D01*
X008520Y009653D01*
X008566Y009665D01*
X008797Y009665D01*
X008797Y009238D01*
X008797Y009393D02*
X008893Y009393D01*
X008893Y009552D02*
X008797Y009552D01*
X008421Y009552D02*
X007956Y009552D01*
X007825Y009393D02*
X008409Y009393D01*
X007988Y009710D02*
X012512Y009710D01*
X012512Y009869D02*
X007948Y009869D01*
X007776Y010027D02*
X012512Y010027D01*
X012512Y009552D02*
X011115Y009552D01*
X011342Y009486D02*
X011342Y009168D01*
X011342Y009168D01*
X011342Y009486D01*
X011342Y009393D02*
X011342Y009393D01*
X011342Y009235D02*
X011342Y009235D01*
X011608Y009340D02*
X011608Y009340D01*
X011608Y009393D02*
X011608Y009393D01*
X011854Y009393D02*
X011854Y009393D01*
X012080Y009393D02*
X012512Y009393D01*
X012512Y009235D02*
X012103Y009235D01*
X012103Y009076D02*
X012512Y009076D01*
X012512Y008918D02*
X012486Y008918D01*
X012486Y008759D02*
X012512Y008759D01*
X012506Y008601D02*
X012512Y008601D01*
X012506Y008568D02*
X012189Y008568D01*
X012189Y008568D01*
X012506Y008568D01*
X010857Y009053D02*
X010547Y009053D01*
X010454Y008959D01*
X010454Y008778D01*
X010071Y008778D01*
X010023Y008730D01*
X009900Y008607D01*
X009900Y008382D01*
X009857Y008425D01*
X009212Y008425D01*
X009209Y008422D01*
X009191Y008433D01*
X009145Y008445D01*
X008913Y008445D01*
X008913Y008018D01*
X008817Y008018D01*
X008817Y007922D01*
X008429Y007922D01*
X008429Y007656D01*
X008350Y007577D01*
X008330Y007557D01*
X008330Y008396D01*
X008390Y008460D01*
X009386Y008460D01*
X009470Y008457D01*
X009473Y008460D01*
X009477Y008460D01*
X009536Y008519D01*
X009623Y008600D01*
X009627Y008600D01*
X009686Y008659D01*
X009747Y008716D01*
X009747Y008720D01*
X009750Y008723D01*
X009750Y008735D01*
X009837Y008735D01*
X009931Y008828D01*
X009931Y009170D01*
X010857Y009170D01*
X010857Y009053D01*
X010857Y009076D02*
X009931Y009076D01*
X009931Y008918D02*
X010454Y008918D01*
X010052Y008759D02*
X009861Y008759D01*
X009900Y008601D02*
X009627Y008601D01*
X009900Y008442D02*
X009157Y008442D01*
X008913Y008442D02*
X008817Y008442D01*
X008817Y008445D02*
X008586Y008445D01*
X008540Y008433D01*
X008499Y008409D01*
X008465Y008376D01*
X008442Y008335D01*
X008429Y008289D01*
X008429Y008018D01*
X008817Y008018D01*
X008817Y008445D01*
X008574Y008442D02*
X008373Y008442D01*
X008330Y008284D02*
X008429Y008284D01*
X008429Y008125D02*
X008330Y008125D01*
X008330Y007967D02*
X008817Y007967D01*
X008817Y008125D02*
X008913Y008125D01*
X008913Y008284D02*
X008817Y008284D01*
X008429Y007808D02*
X008330Y007808D01*
X008330Y007650D02*
X008423Y007650D01*
X008647Y007280D02*
X009452Y007280D01*
X009531Y007274D01*
X009538Y007280D01*
X009547Y007280D01*
X009603Y007336D01*
X009608Y007340D01*
X009617Y007340D01*
X009673Y007396D01*
X009733Y007447D01*
X009733Y007456D01*
X009740Y007463D01*
X009740Y007515D01*
X009857Y007515D01*
X009951Y007608D01*
X009951Y007740D01*
X010117Y007740D01*
X010240Y007863D01*
X010320Y007943D01*
X010320Y008358D01*
X010454Y008358D01*
X010454Y007921D01*
X010541Y007833D01*
X010541Y007138D01*
X010503Y007100D01*
X009951Y007100D01*
X009951Y007142D01*
X009857Y007235D01*
X009212Y007235D01*
X009209Y007232D01*
X009191Y007243D01*
X009145Y007255D01*
X008913Y007255D01*
X008913Y006828D01*
X008817Y006828D01*
X008817Y007255D01*
X008622Y007255D01*
X008647Y007280D01*
X008817Y007174D02*
X008913Y007174D01*
X008913Y007016D02*
X008817Y007016D01*
X008817Y006857D02*
X008913Y006857D01*
X009599Y007333D02*
X010541Y007333D01*
X010541Y007491D02*
X009740Y007491D01*
X009951Y007650D02*
X010541Y007650D01*
X010541Y007808D02*
X010185Y007808D01*
X010320Y007967D02*
X010454Y007967D01*
X010454Y008125D02*
X010320Y008125D01*
X010320Y008284D02*
X010454Y008284D01*
X010541Y007174D02*
X009918Y007174D01*
X009951Y006540D02*
X010922Y006540D01*
X010769Y006382D02*
X009914Y006382D01*
X009745Y006223D02*
X010677Y006223D01*
X010608Y006065D02*
X009671Y006065D01*
X008870Y005906D02*
X010565Y005906D01*
X010550Y005748D02*
X008870Y005748D01*
X008870Y005589D02*
X010550Y005589D01*
X010582Y005431D02*
X008870Y005431D01*
X009142Y005272D02*
X009238Y005272D01*
X009238Y005114D02*
X009142Y005114D01*
X009142Y004955D02*
X009238Y004955D01*
X009583Y005272D02*
X009624Y005272D01*
X009952Y005272D02*
X010048Y005272D01*
X010048Y005291D02*
X010048Y004903D01*
X010475Y004903D01*
X010475Y005134D01*
X010463Y005180D01*
X010439Y005221D01*
X010406Y005255D01*
X010365Y005278D01*
X010319Y005291D01*
X010048Y005291D01*
X010048Y005114D02*
X009952Y005114D01*
X009952Y004955D02*
X010048Y004955D01*
X010475Y004955D02*
X010827Y004955D01*
X010985Y004797D02*
X010475Y004797D01*
X010475Y005114D02*
X010714Y005114D01*
X010625Y005272D02*
X010376Y005272D01*
X010928Y004638D02*
X011277Y004638D01*
X011026Y004480D02*
X012512Y004480D01*
X012512Y004321D02*
X012341Y004321D01*
X012431Y004163D02*
X012512Y004163D01*
X012512Y004004D02*
X012431Y004004D01*
X012431Y003846D02*
X012512Y003846D01*
X012512Y003687D02*
X012431Y003687D01*
X012431Y003529D02*
X012512Y003529D01*
X012512Y003370D02*
X012249Y003370D01*
X012350Y003212D02*
X012512Y003212D01*
X012512Y003053D02*
X012350Y003053D01*
X012350Y002895D02*
X012512Y002895D01*
X012512Y002736D02*
X012350Y002736D01*
X012284Y002578D02*
X012512Y002578D01*
X012512Y002419D02*
X012149Y002419D01*
X012149Y002261D02*
X012512Y002261D01*
X012512Y002102D02*
X012149Y002102D01*
X012169Y001944D02*
X012512Y001944D01*
X012512Y001785D02*
X012460Y001785D01*
X012460Y001627D02*
X012512Y001627D01*
X012512Y001468D02*
X012460Y001468D01*
X012460Y001310D02*
X012512Y001310D01*
X012512Y001151D02*
X012448Y001151D01*
X012512Y000993D02*
X012289Y000993D01*
X012512Y000834D02*
X000180Y000834D01*
X000180Y000993D02*
X008941Y000993D01*
X008794Y001785D02*
X008790Y001785D01*
X008090Y001785D02*
X007961Y001785D01*
X007961Y001627D02*
X008004Y001627D01*
X008004Y001468D02*
X007961Y001468D01*
X007922Y001310D02*
X008004Y001310D01*
X008004Y001151D02*
X000180Y001151D01*
X000180Y001310D02*
X004832Y001310D01*
X004799Y001468D02*
X000180Y001468D01*
X000180Y001627D02*
X004799Y001627D01*
X004799Y001758D02*
X005187Y001758D01*
X005187Y002185D01*
X004956Y002185D01*
X004910Y002173D01*
X004869Y002149D01*
X004835Y002116D01*
X004812Y002075D01*
X004799Y002029D01*
X004799Y001758D01*
X004799Y001785D02*
X000180Y001785D01*
X000180Y001944D02*
X004799Y001944D01*
X004827Y002102D02*
X000180Y002102D01*
X000180Y002261D02*
X005720Y002261D01*
X005720Y002419D02*
X005094Y002419D01*
X005187Y002102D02*
X005283Y002102D01*
X005283Y001944D02*
X005187Y001944D01*
X005187Y001785D02*
X005283Y001785D01*
X005283Y001627D02*
X005187Y001627D01*
X005187Y001468D02*
X005283Y001468D01*
X005283Y001310D02*
X005187Y001310D01*
X006282Y001310D02*
X006472Y001310D01*
X006439Y001468D02*
X006321Y001468D01*
X006321Y001627D02*
X006439Y001627D01*
X006439Y001758D02*
X006827Y001758D01*
X006827Y002185D01*
X006596Y002185D01*
X006550Y002173D01*
X006509Y002149D01*
X006475Y002116D01*
X006452Y002075D01*
X006439Y002029D01*
X006439Y001758D01*
X006439Y001785D02*
X006321Y001785D01*
X006321Y001944D02*
X006439Y001944D01*
X006467Y002102D02*
X006290Y002102D01*
X006140Y002261D02*
X007335Y002261D01*
X007186Y002419D02*
X006140Y002419D01*
X006154Y002578D02*
X007112Y002578D01*
X006923Y002102D02*
X006827Y002102D01*
X006827Y001944D02*
X006923Y001944D01*
X006923Y001785D02*
X006827Y001785D01*
X006827Y001627D02*
X006923Y001627D01*
X006923Y001468D02*
X006827Y001468D01*
X006827Y001310D02*
X006923Y001310D01*
X007961Y001944D02*
X008004Y001944D01*
X008004Y002102D02*
X007930Y002102D01*
X008004Y002261D02*
X007755Y002261D01*
X007948Y002419D02*
X008004Y002419D01*
X008022Y003104D02*
X008022Y003450D01*
X008207Y003450D01*
X008330Y003573D01*
X008735Y003978D01*
X008735Y003873D01*
X008828Y003779D01*
X008980Y003779D01*
X008980Y003403D01*
X009103Y003280D01*
X009103Y003280D01*
X009140Y003243D01*
X009263Y003120D01*
X009493Y003120D01*
X009500Y003113D01*
X009500Y003050D01*
X008990Y003050D01*
X008968Y003063D01*
X008926Y003104D01*
X008895Y003104D01*
X008867Y003120D01*
X008811Y003104D01*
X008022Y003104D01*
X008022Y003212D02*
X009172Y003212D01*
X009140Y003243D02*
X009140Y003243D01*
X009013Y003370D02*
X008022Y003370D01*
X008285Y003529D02*
X008980Y003529D01*
X008980Y003687D02*
X008444Y003687D01*
X008602Y003846D02*
X008762Y003846D01*
X008985Y003053D02*
X009500Y003053D01*
X010730Y004004D02*
X010909Y004004D01*
X010860Y003846D02*
X011297Y003846D01*
X011297Y003822D02*
X011393Y003822D01*
X011393Y003395D01*
X011625Y003395D01*
X011671Y003407D01*
X011689Y003418D01*
X011692Y003415D01*
X011805Y003415D01*
X011805Y003383D01*
X011789Y003325D01*
X011805Y003299D01*
X011805Y003268D01*
X011847Y003226D01*
X011930Y003083D01*
X011930Y002940D01*
X011775Y002940D01*
X011775Y003212D01*
X011681Y003305D01*
X011501Y003305D01*
X011488Y003313D01*
X011442Y003325D01*
X011382Y003325D01*
X011297Y003410D01*
X011297Y003822D01*
X011297Y003687D02*
X011393Y003687D01*
X011393Y003529D02*
X011297Y003529D01*
X011337Y003370D02*
X011801Y003370D01*
X011775Y003212D02*
X011855Y003212D01*
X011930Y003053D02*
X011775Y003053D01*
X011514Y002670D02*
X011514Y002067D01*
X011506Y002053D01*
X011494Y002008D01*
X011494Y001935D01*
X011595Y001935D01*
X011595Y001935D01*
X011595Y001935D01*
X011494Y001935D01*
X011494Y001862D01*
X011506Y001816D01*
X011510Y001810D01*
X011493Y001810D01*
X011467Y001803D01*
X011442Y001810D01*
X011390Y001810D01*
X011390Y001844D01*
X011420Y001874D01*
X011420Y002056D01*
X011326Y002150D01*
X011276Y002150D01*
X011276Y002532D01*
X011258Y002551D01*
X011357Y002650D01*
X011369Y002650D01*
X011442Y002650D01*
X011488Y002663D01*
X011501Y002670D01*
X011514Y002670D01*
X011514Y002578D02*
X011284Y002578D01*
X011369Y002650D02*
X011369Y002662D01*
X011369Y002650D01*
X011369Y002662D02*
X011369Y002662D01*
X011276Y002419D02*
X011514Y002419D01*
X011514Y002261D02*
X011276Y002261D01*
X011374Y002102D02*
X011514Y002102D01*
X011494Y001944D02*
X011420Y001944D01*
X010909Y003687D02*
X010860Y003687D01*
X011297Y004004D02*
X011393Y004004D01*
X011393Y004163D02*
X011297Y004163D01*
X011297Y004321D02*
X011393Y004321D01*
X012083Y004638D02*
X012512Y004638D01*
X012512Y004797D02*
X012375Y004797D01*
X011005Y006699D02*
X010695Y006699D01*
X010854Y006857D02*
X010893Y006857D01*
X007910Y006857D02*
X006802Y006857D01*
X006604Y007172D02*
X006426Y007172D01*
X006410Y007155D01*
X006394Y007172D01*
X006111Y007172D01*
X006095Y007155D01*
X006079Y007172D01*
X005796Y007172D01*
X005780Y007155D01*
X005764Y007172D01*
X005481Y007172D01*
X005465Y007155D01*
X005449Y007172D01*
X005166Y007172D01*
X005150Y007155D01*
X005134Y007172D01*
X004956Y007172D01*
X004956Y007350D01*
X004939Y007366D01*
X004956Y007383D01*
X004956Y007665D01*
X004939Y007681D01*
X004956Y007698D01*
X004956Y007980D01*
X004939Y007996D01*
X004956Y008012D01*
X004956Y008295D01*
X004939Y008311D01*
X004956Y008327D01*
X004956Y008610D01*
X004939Y008626D01*
X004956Y008642D01*
X004956Y008820D01*
X005134Y008820D01*
X005150Y008837D01*
X005166Y008820D01*
X005449Y008820D01*
X005465Y008837D01*
X005481Y008820D01*
X005764Y008820D01*
X005780Y008837D01*
X005796Y008820D01*
X006079Y008820D01*
X006095Y008837D01*
X006111Y008820D01*
X006394Y008820D01*
X006410Y008837D01*
X006426Y008820D01*
X006604Y008820D01*
X006604Y008642D01*
X006610Y008636D01*
X006597Y008613D01*
X006584Y008567D01*
X006584Y008469D01*
X006922Y008469D01*
X006922Y008468D01*
X006584Y008468D01*
X006584Y008370D01*
X006597Y008324D01*
X006610Y008301D01*
X006604Y008295D01*
X006604Y008012D01*
X006621Y007996D01*
X006604Y007980D01*
X006604Y007698D01*
X006621Y007681D01*
X006604Y007665D01*
X006604Y007383D01*
X006621Y007366D01*
X006604Y007350D01*
X006604Y007172D01*
X006604Y007174D02*
X004956Y007174D01*
X004956Y007333D02*
X006604Y007333D01*
X006604Y007491D02*
X004956Y007491D01*
X004956Y007650D02*
X006604Y007650D01*
X006604Y007808D02*
X004956Y007808D01*
X004956Y007967D02*
X006604Y007967D01*
X006604Y008125D02*
X004956Y008125D01*
X004956Y008284D02*
X006604Y008284D01*
X006584Y008442D02*
X004956Y008442D01*
X004956Y008601D02*
X006593Y008601D01*
X006604Y008759D02*
X004956Y008759D01*
X004638Y008469D02*
X003340Y008469D01*
X001859Y008469D01*
X001670Y008280D01*
X001680Y008280D01*
X001680Y007700D01*
X001180Y007200D02*
X001190Y009210D01*
X001580Y009600D01*
X005440Y009600D01*
X005620Y009420D01*
X005620Y009140D01*
X005623Y009138D01*
X005825Y009552D02*
X006319Y009552D01*
X006361Y009710D02*
X005669Y009710D01*
X006475Y009869D02*
X000180Y009869D01*
X000180Y009710D02*
X001351Y009710D01*
X001377Y009736D02*
X001377Y009736D01*
X001192Y009552D02*
X000180Y009552D01*
X000180Y009393D02*
X001034Y009393D01*
X000950Y009258D02*
X000950Y009258D01*
X000950Y009235D02*
X000180Y009235D01*
X000180Y009076D02*
X000949Y009076D01*
X000949Y008918D02*
X000180Y008918D01*
X000180Y008759D02*
X000948Y008759D01*
X000947Y008601D02*
X000180Y008601D01*
X000180Y008442D02*
X000946Y008442D01*
X000945Y008284D02*
X000180Y008284D01*
X000180Y008125D02*
X000945Y008125D01*
X000944Y007967D02*
X000180Y007967D01*
X000180Y007808D02*
X000943Y007808D01*
X000880Y007650D02*
X000180Y007650D01*
X000180Y007491D02*
X000727Y007491D01*
X000661Y007333D02*
X000180Y007333D01*
X000180Y007174D02*
X000650Y007174D01*
X000683Y007016D02*
X000180Y007016D01*
X000180Y006857D02*
X000773Y006857D01*
X000929Y006699D02*
X000180Y006699D01*
X000180Y006540D02*
X000770Y006540D01*
X000650Y006382D02*
X000180Y006382D01*
X000180Y006223D02*
X000650Y006223D01*
X000650Y006065D02*
X000180Y006065D01*
X000180Y005906D02*
X000724Y005906D01*
X000883Y005748D02*
X000180Y005748D01*
X000180Y005589D02*
X000650Y005589D01*
X000650Y005431D02*
X000180Y005431D01*
X000180Y005272D02*
X000650Y005272D01*
X000650Y005114D02*
X000180Y005114D01*
X000180Y004955D02*
X000650Y004955D01*
X000650Y004797D02*
X000180Y004797D01*
X000180Y004638D02*
X000868Y004638D01*
X000722Y004480D02*
X000180Y004480D01*
X000180Y004321D02*
X000656Y004321D01*
X000650Y004163D02*
X000180Y004163D01*
X000180Y004004D02*
X000688Y004004D01*
X000785Y003846D02*
X000180Y003846D01*
X000180Y003687D02*
X001034Y003687D01*
X001326Y003687D02*
X001980Y003687D01*
X001968Y003529D02*
X001980Y003529D01*
X001785Y003846D02*
X001575Y003846D01*
X001672Y004004D02*
X001688Y004004D01*
X001552Y003529D02*
X000180Y003529D01*
X000180Y003370D02*
X001430Y003370D01*
X001402Y003212D02*
X000180Y003212D01*
X000180Y003053D02*
X001446Y003053D01*
X001634Y002895D02*
X000180Y002895D01*
X000180Y002736D02*
X001957Y002736D01*
X000180Y002578D02*
X004258Y002578D01*
X004332Y002419D02*
X000180Y002419D01*
X004040Y005431D02*
X004293Y005431D01*
X004274Y005589D02*
X004040Y005589D01*
X004040Y005748D02*
X004103Y005748D01*
X004340Y005850D02*
X004729Y005850D01*
X004749Y005870D01*
X005224Y005906D02*
X005774Y005906D01*
X005774Y005748D02*
X005929Y005748D01*
X005929Y005589D02*
X005774Y005589D01*
X005774Y005431D02*
X005929Y005431D01*
X005378Y005431D02*
X005205Y005431D01*
X005224Y005589D02*
X005356Y005589D01*
X005356Y005748D02*
X005224Y005748D01*
X005224Y006065D02*
X005356Y006065D01*
X005356Y006223D02*
X005224Y006223D01*
X004340Y005850D02*
X004090Y006100D01*
X004090Y006880D01*
X003770Y007200D01*
X003180Y007200D01*
X003587Y006857D02*
X003774Y006857D01*
X003850Y006699D02*
X003459Y006699D01*
X003618Y006540D02*
X003850Y006540D01*
X003850Y006382D02*
X003730Y006382D01*
X003730Y006223D02*
X003850Y006223D01*
X003850Y006065D02*
X003730Y006065D01*
X003921Y005906D02*
X003945Y005906D01*
X005141Y005114D02*
X005387Y005114D01*
X005228Y004955D02*
X005168Y004955D01*
X006011Y004638D02*
X007092Y004638D01*
X007112Y004480D02*
X006018Y004480D01*
X005937Y004321D02*
X007112Y004321D01*
X007112Y004163D02*
X005520Y004163D01*
X005520Y004004D02*
X007112Y004004D01*
X007112Y003846D02*
X005520Y003846D01*
X005520Y003687D02*
X007112Y003687D01*
X007112Y003529D02*
X005520Y003529D01*
X005520Y003370D02*
X007112Y003370D01*
X007112Y003212D02*
X005520Y003212D01*
X005520Y003053D02*
X006036Y003053D01*
X005878Y002895D02*
X005520Y002895D01*
X005520Y002736D02*
X005720Y002736D01*
X005720Y002578D02*
X005464Y002578D01*
X006567Y009138D02*
X006560Y009145D01*
X006560Y009570D01*
X006650Y009700D01*
X007630Y009700D01*
X007435Y009393D02*
X006800Y009393D01*
X007484Y010027D02*
X000180Y010027D01*
D28*
X003290Y008080D03*
X004190Y005250D03*
X005660Y004550D03*
X006620Y003560D03*
X008540Y003410D03*
X010680Y004380D03*
X010380Y006470D03*
X011230Y006980D03*
X012010Y007240D03*
X010290Y007420D03*
X010230Y008970D03*
X007680Y007320D03*
X006990Y006390D03*
X007590Y005980D03*
X003780Y003500D03*
X001760Y003230D03*
X007630Y009700D03*
D29*
X008300Y008670D02*
X009390Y008670D01*
X009540Y008810D01*
X009540Y009005D01*
X009515Y009190D01*
X009860Y009380D01*
X010990Y009380D01*
X011080Y009290D01*
X011080Y009180D01*
X011090Y009170D01*
X010751Y008568D02*
X010158Y008568D01*
X010110Y008520D01*
X010110Y008030D01*
X010030Y007950D01*
X009545Y007950D01*
X009535Y007970D01*
X009530Y007935D01*
X009530Y007550D01*
X009460Y007490D01*
X008560Y007490D01*
X008380Y007310D01*
X008390Y004260D01*
X008048Y003918D01*
X007567Y003918D01*
X007567Y004174D02*
X007964Y004174D01*
X008120Y004330D01*
X008120Y008480D01*
X008300Y008670D01*
X009555Y006890D02*
X009535Y006780D01*
X009535Y006225D01*
X009460Y006150D01*
X008720Y006150D01*
X008660Y006090D01*
X008660Y004200D01*
X008120Y003660D01*
X007569Y003660D01*
X007567Y003662D01*
X007567Y002894D02*
X008839Y002894D01*
X009230Y002674D01*
X009710Y002750D02*
X009720Y002740D01*
X009904Y002740D01*
X009922Y002722D01*
X009710Y002750D02*
X009710Y003200D01*
X009580Y003330D01*
X009350Y003330D01*
X009190Y003490D01*
X009190Y004195D01*
X010000Y004185D02*
X010000Y003510D01*
X010210Y003300D01*
X010540Y003300D01*
X010580Y003260D01*
X010580Y002989D01*
X010582Y002988D01*
X010380Y002700D02*
X011110Y002700D01*
X011170Y002760D01*
X011170Y002986D01*
X011172Y002988D01*
X011172Y003238D01*
X011050Y003360D01*
X010790Y003360D01*
X010650Y003500D01*
X010650Y003770D01*
X010520Y003900D01*
X010520Y004220D01*
X010680Y004380D01*
X011345Y003870D02*
X011295Y003435D01*
X011390Y003340D01*
X011390Y003300D01*
X011370Y003260D01*
X011370Y002989D01*
X011370Y002630D01*
X011380Y002620D01*
X011380Y002450D01*
X011400Y002430D01*
X011400Y001990D01*
X011450Y001940D01*
X011390Y001880D01*
X011390Y001493D01*
X011369Y001472D01*
X011832Y001738D02*
X011854Y001730D01*
X012250Y001730D01*
X012250Y001250D01*
X012100Y001100D01*
X009130Y001100D01*
X008814Y001416D01*
X008440Y001416D01*
X009230Y001886D02*
X009314Y001906D01*
X009490Y001730D01*
X009750Y001730D01*
X009922Y001738D01*
X009922Y001935D02*
X010225Y001935D01*
X010290Y002000D01*
X010290Y002610D01*
X010380Y002700D01*
X011369Y002988D02*
X011370Y002989D01*
X011832Y002722D02*
X011839Y002730D01*
X012140Y002730D01*
X012140Y003140D01*
X012015Y003355D01*
X012015Y003870D01*
X012250Y002020D02*
X012250Y002000D01*
X012280Y001970D01*
X012160Y001970D01*
X012130Y001940D01*
X011450Y001940D01*
X011832Y001935D02*
X012165Y001935D01*
X012250Y002020D01*
X008450Y002214D02*
X008440Y002204D01*
X008450Y002214D02*
X008450Y002460D01*
X008272Y002638D01*
X007567Y002638D01*
X007545Y002616D01*
X007545Y001710D01*
X007567Y002894D02*
X006174Y002894D01*
X005930Y002650D01*
X005930Y001735D01*
X005905Y001710D01*
X005228Y002638D02*
X004713Y002638D01*
X004713Y002894D02*
X002096Y002894D01*
X001760Y003230D01*
X002190Y003450D02*
X002190Y003890D01*
X002180Y004200D01*
X001680Y004700D02*
X003510Y004700D01*
X004000Y004210D01*
X004000Y003820D01*
X004160Y003660D01*
X004711Y003660D01*
X004713Y003662D01*
X004713Y003406D02*
X003934Y003406D01*
X003780Y003500D01*
X004210Y003970D02*
X004270Y003910D01*
X004705Y003910D01*
X004713Y003918D01*
X004210Y003970D02*
X004210Y004320D01*
X004100Y004430D01*
X004100Y004440D01*
X003830Y004710D01*
X003830Y005700D01*
X001720Y005700D01*
X001690Y005670D01*
X001690Y005500D01*
X001190Y005000D01*
X001180Y005200D01*
X001680Y004700D02*
X001210Y003960D01*
X001180Y004200D01*
X002190Y003450D02*
X002490Y003150D01*
X004713Y003150D01*
X005228Y002638D02*
X005310Y002720D01*
X005310Y004640D01*
X005260Y004690D01*
X005512Y004942D01*
X007567Y004942D01*
X006990Y006390D02*
X006980Y006390D01*
X006900Y006470D01*
X004800Y006470D01*
X004740Y006410D01*
X004740Y005879D01*
X004749Y005870D01*
X004190Y005250D02*
X004210Y004790D01*
X004210Y004630D01*
X004420Y004420D01*
X004713Y004430D01*
X004713Y004686D02*
X005494Y004686D01*
X005660Y004550D01*
X005260Y004690D02*
X004717Y004690D01*
X004713Y004686D01*
X001680Y006700D02*
X001180Y006200D01*
X001680Y006700D02*
X001680Y007700D01*
X003290Y008080D02*
X003290Y008419D01*
X003340Y008469D01*
X009555Y006890D02*
X010590Y006890D01*
X010751Y007051D01*
X010751Y008056D01*
X011342Y007721D02*
X011342Y007092D01*
X011230Y006980D01*
X012010Y007240D02*
X012090Y007160D01*
X012430Y007160D01*
X012510Y007240D01*
X012510Y008280D01*
X012478Y008312D01*
X012189Y008312D01*
X011598Y007721D02*
X011342Y007721D01*
M02*
