G75*
G70*
%OFA0B0*%
%FSLAX24Y24*%
%IPPOS*%
%LPD*%
%AMOC8*
5,1,8,0,0,1.08239X$1,22.5*
%
%ADD10R,0.0356X0.0218*%
%ADD11R,0.0218X0.0356*%
%ADD12R,0.0787X0.0787*%
%ADD13R,0.0671X0.0237*%
%ADD14R,0.0395X0.0178*%
%ADD15R,0.0178X0.0395*%
%ADD16R,0.0472X0.0472*%
%ADD17R,0.0820X0.0820*%
%ADD18OC8,0.0820*%
%ADD19C,0.0820*%
%ADD20C,0.1380*%
%ADD21R,0.0395X0.0230*%
%ADD22R,0.0230X0.0395*%
%ADD23R,0.0592X0.0671*%
%ADD24R,0.0671X0.0592*%
%ADD25R,0.0631X0.0513*%
%ADD26R,0.0710X0.0789*%
%ADD27C,0.0476*%
D10*
X010751Y008056D03*
X010751Y008312D03*
X010751Y008568D03*
X010751Y008824D03*
X012189Y008824D03*
X012189Y008568D03*
X012189Y008312D03*
X012189Y008056D03*
D11*
X011854Y007721D03*
X011598Y007721D03*
X011342Y007721D03*
X011086Y007721D03*
X011086Y009168D03*
X011342Y009168D03*
X011608Y009168D03*
X011854Y009168D03*
D12*
X011470Y008440D03*
D13*
X007567Y004942D03*
X007567Y004686D03*
X007567Y004430D03*
X007567Y004174D03*
X007567Y003918D03*
X007567Y003662D03*
X007567Y003406D03*
X007567Y003150D03*
X007567Y002894D03*
X007567Y002638D03*
X004713Y002638D03*
X004713Y002894D03*
X004713Y003150D03*
X004713Y003406D03*
X004713Y003662D03*
X004713Y003918D03*
X004713Y004174D03*
X004713Y004430D03*
X004713Y004686D03*
X004713Y004942D03*
D14*
X009922Y002722D03*
X009922Y002525D03*
X009922Y002328D03*
X009922Y002132D03*
X009922Y001935D03*
X009922Y001738D03*
X011832Y001738D03*
X011832Y001935D03*
X011832Y002132D03*
X011832Y002328D03*
X011832Y002525D03*
X011832Y002722D03*
D15*
X011566Y002988D03*
X011369Y002988D03*
X011172Y002988D03*
X010975Y002988D03*
X010778Y002988D03*
X010582Y002988D03*
X010385Y002988D03*
X010188Y002988D03*
X010188Y001472D03*
X010385Y001472D03*
X010582Y001472D03*
X010778Y001472D03*
X010975Y001472D03*
X011172Y001472D03*
X011369Y001472D03*
X011566Y001472D03*
D16*
X010880Y002230D03*
D17*
X001180Y005200D03*
D18*
X002180Y005200D03*
X003180Y005200D03*
X003180Y006200D03*
X002180Y006200D03*
X001180Y006200D03*
D19*
X001180Y007200D03*
X002180Y007200D03*
X003180Y007200D03*
X003180Y004200D03*
X002180Y004200D03*
X001180Y004200D03*
D20*
X011680Y005700D03*
D21*
X006922Y007209D03*
X006922Y007524D03*
X006922Y007839D03*
X006922Y008154D03*
X006922Y008469D03*
X006922Y008783D03*
X004638Y008783D03*
X004638Y008469D03*
X004638Y008154D03*
X004638Y007839D03*
X004638Y007524D03*
X004638Y007209D03*
D22*
X004993Y006854D03*
X005308Y006854D03*
X005623Y006854D03*
X005937Y006854D03*
X006252Y006854D03*
X006567Y006854D03*
X006567Y009138D03*
X006252Y009138D03*
X005937Y009138D03*
X005623Y009138D03*
X005308Y009138D03*
X004993Y009138D03*
D23*
X008845Y009190D03*
X009515Y009190D03*
X009535Y007970D03*
X008865Y007970D03*
X008865Y006780D03*
X009535Y006780D03*
X011345Y003870D03*
X012015Y003870D03*
X007545Y001710D03*
X006875Y001710D03*
X005905Y001710D03*
X005235Y001710D03*
D24*
X009190Y004195D03*
X010000Y004185D03*
X010000Y004855D03*
X009190Y004865D03*
D25*
X009230Y002674D03*
X008440Y002204D03*
X009230Y001886D03*
X008440Y001416D03*
D26*
X005851Y005870D03*
X004749Y005870D03*
D27*
X001760Y003230D03*
X003780Y003500D03*
X005660Y004550D03*
X006620Y003560D03*
X008540Y003410D03*
X010680Y004380D03*
X010380Y006470D03*
X011230Y006980D03*
X012010Y007240D03*
X010290Y007420D03*
X010230Y008970D03*
X007680Y007320D03*
X006990Y006390D03*
X007590Y005980D03*
X004190Y005250D03*
X003290Y008080D03*
X007630Y009700D03*
M02*
